%TF.GenerationSoftware,KiCad,Pcbnew,8.0.5*%
%TF.CreationDate,2025-02-26T14:21:13-03:00*%
%TF.ProjectId,EchoCar_PCB,4563686f-4361-4725-9f50-43422e6b6963,rev?*%
%TF.SameCoordinates,Original*%
%TF.FileFunction,Paste,Top*%
%TF.FilePolarity,Positive*%
%FSLAX46Y46*%
G04 Gerber Fmt 4.6, Leading zero omitted, Abs format (unit mm)*
G04 Created by KiCad (PCBNEW 8.0.5) date 2025-02-26 14:21:13*
%MOMM*%
%LPD*%
G01*
G04 APERTURE LIST*
G04 Aperture macros list*
%AMRoundRect*
0 Rectangle with rounded corners*
0 $1 Rounding radius*
0 $2 $3 $4 $5 $6 $7 $8 $9 X,Y pos of 4 corners*
0 Add a 4 corners polygon primitive as box body*
4,1,4,$2,$3,$4,$5,$6,$7,$8,$9,$2,$3,0*
0 Add four circle primitives for the rounded corners*
1,1,$1+$1,$2,$3*
1,1,$1+$1,$4,$5*
1,1,$1+$1,$6,$7*
1,1,$1+$1,$8,$9*
0 Add four rect primitives between the rounded corners*
20,1,$1+$1,$2,$3,$4,$5,0*
20,1,$1+$1,$4,$5,$6,$7,0*
20,1,$1+$1,$6,$7,$8,$9,0*
20,1,$1+$1,$8,$9,$2,$3,0*%
G04 Aperture macros list end*
%ADD10RoundRect,0.140000X-0.170000X0.140000X-0.170000X-0.140000X0.170000X-0.140000X0.170000X0.140000X0*%
%ADD11RoundRect,0.250000X-0.250000X-0.475000X0.250000X-0.475000X0.250000X0.475000X-0.250000X0.475000X0*%
%ADD12RoundRect,0.140000X-0.140000X-0.170000X0.140000X-0.170000X0.140000X0.170000X-0.140000X0.170000X0*%
%ADD13RoundRect,0.140000X0.170000X-0.140000X0.170000X0.140000X-0.170000X0.140000X-0.170000X-0.140000X0*%
%ADD14RoundRect,0.250000X0.550000X-1.250000X0.550000X1.250000X-0.550000X1.250000X-0.550000X-1.250000X0*%
%ADD15RoundRect,0.075000X-0.662500X-0.075000X0.662500X-0.075000X0.662500X0.075000X-0.662500X0.075000X0*%
%ADD16RoundRect,0.075000X-0.075000X-0.662500X0.075000X-0.662500X0.075000X0.662500X-0.075000X0.662500X0*%
%ADD17RoundRect,0.218750X0.256250X-0.218750X0.256250X0.218750X-0.256250X0.218750X-0.256250X-0.218750X0*%
%ADD18O,2.038000X0.574000*%
%ADD19RoundRect,0.135000X-0.185000X0.135000X-0.185000X-0.135000X0.185000X-0.135000X0.185000X0.135000X0*%
%ADD20RoundRect,0.375000X-0.375000X0.625000X-0.375000X-0.625000X0.375000X-0.625000X0.375000X0.625000X0*%
%ADD21RoundRect,0.500000X-1.400000X0.500000X-1.400000X-0.500000X1.400000X-0.500000X1.400000X0.500000X0*%
%ADD22R,1.200000X1.400000*%
%ADD23RoundRect,0.250000X0.475000X-0.250000X0.475000X0.250000X-0.475000X0.250000X-0.475000X-0.250000X0*%
%ADD24RoundRect,0.135000X-0.135000X-0.185000X0.135000X-0.185000X0.135000X0.185000X-0.135000X0.185000X0*%
%ADD25RoundRect,0.140000X0.140000X0.170000X-0.140000X0.170000X-0.140000X-0.170000X0.140000X-0.170000X0*%
%ADD26RoundRect,0.250000X0.600000X-0.400000X0.600000X0.400000X-0.600000X0.400000X-0.600000X-0.400000X0*%
G04 APERTURE END LIST*
D10*
%TO.C,C7*%
X135750000Y-77270000D03*
X135750000Y-78230000D03*
%TD*%
D11*
%TO.C,C10*%
X117500000Y-56000000D03*
X119400000Y-56000000D03*
%TD*%
D12*
%TO.C,C5*%
X145790000Y-67250000D03*
X146750000Y-67250000D03*
%TD*%
D13*
%TO.C,C3*%
X135000000Y-67980000D03*
X135000000Y-67020000D03*
%TD*%
D14*
%TO.C,C12*%
X126500000Y-92450000D03*
X126500000Y-88050000D03*
%TD*%
D15*
%TO.C,U1*%
X136837500Y-68250000D03*
X136837500Y-68750000D03*
X136837500Y-69250000D03*
X136837500Y-69750000D03*
X136837500Y-70250000D03*
X136837500Y-70750000D03*
X136837500Y-71250000D03*
X136837500Y-71750000D03*
X136837500Y-72250000D03*
X136837500Y-72750000D03*
X136837500Y-73250000D03*
X136837500Y-73750000D03*
D16*
X138250000Y-75162500D03*
X138750000Y-75162500D03*
X139250000Y-75162500D03*
X139750000Y-75162500D03*
X140250000Y-75162500D03*
X140750000Y-75162500D03*
X141250000Y-75162500D03*
X141750000Y-75162500D03*
X142250000Y-75162500D03*
X142750000Y-75162500D03*
X143250000Y-75162500D03*
X143750000Y-75162500D03*
D15*
X145162500Y-73750000D03*
X145162500Y-73250000D03*
X145162500Y-72750000D03*
X145162500Y-72250000D03*
X145162500Y-71750000D03*
X145162500Y-71250000D03*
X145162500Y-70750000D03*
X145162500Y-70250000D03*
X145162500Y-69750000D03*
X145162500Y-69250000D03*
X145162500Y-68750000D03*
X145162500Y-68250000D03*
D16*
X143750000Y-66837500D03*
X143250000Y-66837500D03*
X142750000Y-66837500D03*
X142250000Y-66837500D03*
X141750000Y-66837500D03*
X141250000Y-66837500D03*
X140750000Y-66837500D03*
X140250000Y-66837500D03*
X139750000Y-66837500D03*
X139250000Y-66837500D03*
X138750000Y-66837500D03*
X138250000Y-66837500D03*
%TD*%
D17*
%TO.C,D1*%
X124000000Y-67075000D03*
X124000000Y-65500000D03*
%TD*%
D10*
%TO.C,C9*%
X133500000Y-70600000D03*
X133500000Y-71560000D03*
%TD*%
D11*
%TO.C,C1*%
X137600000Y-62500000D03*
X139500000Y-62500000D03*
%TD*%
D18*
%TO.C,U3*%
X126269000Y-81945000D03*
X126269000Y-80675000D03*
X126269000Y-79405000D03*
X126269000Y-78135000D03*
X126269000Y-76865000D03*
X126269000Y-75595000D03*
X126269000Y-74325000D03*
X126269000Y-73055000D03*
X120731000Y-73055000D03*
X120731000Y-74325000D03*
X120731000Y-75595000D03*
X120731000Y-76865000D03*
X120731000Y-78135000D03*
X120731000Y-79405000D03*
X120731000Y-80675000D03*
X120731000Y-81945000D03*
%TD*%
D13*
%TO.C,C2*%
X135000000Y-72210000D03*
X135000000Y-71250000D03*
%TD*%
D19*
%TO.C,R2*%
X124000000Y-68990000D03*
X124000000Y-70010000D03*
%TD*%
D20*
%TO.C,U2*%
X120800000Y-58850000D03*
X118500000Y-58850000D03*
D21*
X118500000Y-65150000D03*
D20*
X116200000Y-58850000D03*
%TD*%
D22*
%TO.C,Y1*%
X129650000Y-69000000D03*
X129650000Y-71200000D03*
X131350000Y-71200000D03*
X131350000Y-69000000D03*
%TD*%
D13*
%TO.C,C8*%
X133500000Y-69580000D03*
X133500000Y-68620000D03*
%TD*%
D12*
%TO.C,C6*%
X138000000Y-65000000D03*
X138960000Y-65000000D03*
%TD*%
D23*
%TO.C,C11*%
X124000000Y-62950000D03*
X124000000Y-61050000D03*
%TD*%
D24*
%TO.C,R3*%
X121990000Y-93000000D03*
X123010000Y-93000000D03*
%TD*%
D14*
%TO.C,C13*%
X119000000Y-92450000D03*
X119000000Y-88050000D03*
%TD*%
D25*
%TO.C,C4*%
X144000000Y-77000000D03*
X143040000Y-77000000D03*
%TD*%
D26*
%TO.C,D2*%
X131000000Y-92000000D03*
X131000000Y-88500000D03*
%TD*%
D19*
%TO.C,R1*%
X141000000Y-60500000D03*
X141000000Y-61520000D03*
%TD*%
M02*
