%TF.GenerationSoftware,KiCad,Pcbnew,8.0.5*%
%TF.CreationDate,2025-02-26T14:21:13-03:00*%
%TF.ProjectId,EchoCar_PCB,4563686f-4361-4725-9f50-43422e6b6963,rev?*%
%TF.SameCoordinates,Original*%
%TF.FileFunction,Legend,Bot*%
%TF.FilePolarity,Positive*%
%FSLAX46Y46*%
G04 Gerber Fmt 4.6, Leading zero omitted, Abs format (unit mm)*
G04 Created by KiCad (PCBNEW 8.0.5) date 2025-02-26 14:21:13*
%MOMM*%
%LPD*%
G01*
G04 APERTURE LIST*
%ADD10C,0.500000*%
%ADD11C,0.100000*%
G04 APERTURE END LIST*
D10*
G36*
X151054081Y-90300000D02*
G01*
X150631541Y-88267899D01*
X149170969Y-88267899D01*
X149242288Y-88611793D01*
X150304744Y-88611793D01*
X150396091Y-89049476D01*
X149407396Y-89049476D01*
X149478715Y-89393370D01*
X150467410Y-89393370D01*
X150584647Y-89956106D01*
X149484577Y-89956106D01*
X149555896Y-90300000D01*
X151054081Y-90300000D01*
G37*
G36*
X147725540Y-89237055D02*
G01*
X148110467Y-89299581D01*
X148122996Y-89199143D01*
X148161758Y-89135938D01*
X148250601Y-89088502D01*
X148322958Y-89080739D01*
X148423960Y-89095714D01*
X148515207Y-89140640D01*
X148570620Y-89187229D01*
X148631576Y-89267762D01*
X148677381Y-89364143D01*
X148710896Y-89468824D01*
X148728401Y-89543335D01*
X148745843Y-89641664D01*
X148755644Y-89741925D01*
X148751553Y-89847958D01*
X148724982Y-89935589D01*
X148655325Y-90013728D01*
X148562346Y-90047104D01*
X148519329Y-90049895D01*
X148418335Y-90034141D01*
X148330285Y-89986880D01*
X148262926Y-89913831D01*
X148211589Y-89823384D01*
X148188136Y-89768527D01*
X147830076Y-89831053D01*
X147873942Y-89919668D01*
X147932282Y-90012285D01*
X147998336Y-90093309D01*
X148072104Y-90162739D01*
X148129518Y-90205233D01*
X148216766Y-90254340D01*
X148312242Y-90291386D01*
X148415946Y-90316370D01*
X148527878Y-90329293D01*
X148595533Y-90331263D01*
X148706845Y-90324136D01*
X148806307Y-90302755D01*
X148907369Y-90259795D01*
X148992303Y-90197435D01*
X149052267Y-90128541D01*
X149104840Y-90032203D01*
X149133233Y-89937796D01*
X149146239Y-89832466D01*
X149143858Y-89716214D01*
X149130119Y-89610994D01*
X149121632Y-89566782D01*
X149094238Y-89457286D01*
X149059379Y-89355636D01*
X149017054Y-89261834D01*
X148967263Y-89175879D01*
X148897659Y-89083092D01*
X148817305Y-89001605D01*
X148728250Y-88932877D01*
X148632910Y-88878369D01*
X148531284Y-88838080D01*
X148423372Y-88812011D01*
X148309175Y-88800161D01*
X148269713Y-88799371D01*
X148161975Y-88804561D01*
X148053959Y-88823199D01*
X147951709Y-88860371D01*
X147877947Y-88907815D01*
X147806602Y-88986355D01*
X147760826Y-89075965D01*
X147734799Y-89170670D01*
X147725540Y-89237055D01*
G37*
G36*
X146834542Y-88267899D02*
G01*
X146988415Y-89007466D01*
X146902772Y-88936747D01*
X146815102Y-88880659D01*
X146725405Y-88839202D01*
X146618199Y-88809329D01*
X146508233Y-88799371D01*
X146408309Y-88807595D01*
X146314222Y-88834843D01*
X146284019Y-88849197D01*
X146204029Y-88905861D01*
X146152616Y-88976203D01*
X146121618Y-89073883D01*
X146115491Y-89147662D01*
X146123105Y-89249643D01*
X146138389Y-89346872D01*
X146156524Y-89439288D01*
X146335310Y-90300000D01*
X146712909Y-90300000D01*
X146549755Y-89514515D01*
X146528933Y-89408422D01*
X146513038Y-89305773D01*
X146509699Y-89218004D01*
X146553777Y-89127550D01*
X146564898Y-89117864D01*
X146658874Y-89082516D01*
X146692881Y-89080739D01*
X146790156Y-89094250D01*
X146871178Y-89128611D01*
X146952039Y-89192604D01*
X147009420Y-89271737D01*
X147050660Y-89364685D01*
X147081777Y-89467009D01*
X147102232Y-89555059D01*
X147257082Y-90300000D01*
X147634682Y-90300000D01*
X147212141Y-88267899D01*
X146834542Y-88267899D01*
G37*
G36*
X145067475Y-88805325D02*
G01*
X145168439Y-88823185D01*
X145267022Y-88852952D01*
X145363223Y-88894626D01*
X145454509Y-88947596D01*
X145538345Y-89011252D01*
X145614732Y-89085594D01*
X145683670Y-89170621D01*
X145743051Y-89261784D01*
X145791259Y-89354535D01*
X145828292Y-89448874D01*
X145854151Y-89544801D01*
X145857312Y-89560510D01*
X145873538Y-89666281D01*
X145879432Y-89764712D01*
X145873516Y-89868218D01*
X145850732Y-89973203D01*
X145835077Y-90015846D01*
X145788078Y-90102138D01*
X145716733Y-90182337D01*
X145635310Y-90240404D01*
X145584639Y-90266579D01*
X145488863Y-90302514D01*
X145387214Y-90324076D01*
X145279692Y-90331263D01*
X145201412Y-90327843D01*
X145087656Y-90309891D01*
X144978296Y-90276552D01*
X144873333Y-90227826D01*
X144789222Y-90175466D01*
X144708164Y-90112421D01*
X144677076Y-90084623D01*
X144605702Y-90011255D01*
X144543391Y-89932353D01*
X144490145Y-89847917D01*
X144445961Y-89757948D01*
X144410842Y-89662446D01*
X144384786Y-89561409D01*
X144377079Y-89520579D01*
X144364789Y-89403445D01*
X144366865Y-89346183D01*
X144756842Y-89346183D01*
X144757104Y-89453087D01*
X144773621Y-89562386D01*
X144798899Y-89661065D01*
X144836833Y-89760616D01*
X144884415Y-89846063D01*
X144949476Y-89925331D01*
X145030343Y-89991019D01*
X145124146Y-90035176D01*
X145223028Y-90049895D01*
X145284086Y-90043934D01*
X145379000Y-90001237D01*
X145445289Y-89925331D01*
X145472073Y-89865361D01*
X145489819Y-89761444D01*
X145486636Y-89662853D01*
X145471178Y-89565317D01*
X145450130Y-89481088D01*
X145413569Y-89380856D01*
X145360835Y-89284591D01*
X145295812Y-89205792D01*
X145214430Y-89139846D01*
X145120281Y-89095516D01*
X145021283Y-89080739D01*
X144960248Y-89086723D01*
X144865502Y-89129588D01*
X144799511Y-89205792D01*
X144779301Y-89247341D01*
X144756842Y-89346183D01*
X144366865Y-89346183D01*
X144368744Y-89294349D01*
X144388946Y-89193289D01*
X144425393Y-89100267D01*
X144478087Y-89015282D01*
X144488381Y-89001999D01*
X144556777Y-88931153D01*
X144650940Y-88867687D01*
X144743968Y-88829734D01*
X144848365Y-88806962D01*
X144964130Y-88799371D01*
X145067475Y-88805325D01*
G37*
G36*
X142788415Y-89518422D02*
G01*
X142428889Y-89643475D01*
X142480211Y-89743397D01*
X142535564Y-89834948D01*
X142594948Y-89918126D01*
X142658363Y-89992933D01*
X142739782Y-90071650D01*
X142827005Y-90138311D01*
X142919661Y-90193260D01*
X143017744Y-90236840D01*
X143121253Y-90269051D01*
X143230189Y-90289894D01*
X143344552Y-90299368D01*
X143383879Y-90300000D01*
X143501676Y-90293369D01*
X143609909Y-90273476D01*
X143708576Y-90240322D01*
X143797680Y-90193907D01*
X143877219Y-90134229D01*
X143947193Y-90061290D01*
X143972504Y-90028401D01*
X144026538Y-89938661D01*
X144066213Y-89839190D01*
X144091530Y-89729986D01*
X144102487Y-89611051D01*
X144100915Y-89508897D01*
X144090153Y-89400514D01*
X144070201Y-89285903D01*
X144041068Y-89164820D01*
X144005447Y-89050697D01*
X143963338Y-88943536D01*
X143914741Y-88843335D01*
X143859656Y-88750095D01*
X143798084Y-88663817D01*
X143730025Y-88584499D01*
X143655477Y-88512142D01*
X143576083Y-88447570D01*
X143493483Y-88391608D01*
X143407677Y-88344255D01*
X143295912Y-88297172D01*
X143179139Y-88263541D01*
X143082113Y-88246322D01*
X142981882Y-88237712D01*
X142930564Y-88236636D01*
X142822086Y-88242289D01*
X142722576Y-88259247D01*
X142615003Y-88294521D01*
X142520343Y-88346076D01*
X142438598Y-88413910D01*
X142391276Y-88468178D01*
X142339151Y-88554818D01*
X142304949Y-88647660D01*
X142282166Y-88755402D01*
X142271597Y-88861898D01*
X142678506Y-88924424D01*
X142690412Y-88822850D01*
X142727495Y-88730079D01*
X142771806Y-88672854D01*
X142857151Y-88613078D01*
X142955680Y-88584948D01*
X143021911Y-88580530D01*
X143128279Y-88590483D01*
X143228541Y-88620341D01*
X143322696Y-88670106D01*
X143400073Y-88729979D01*
X143410746Y-88739776D01*
X143480346Y-88818913D01*
X143532747Y-88901815D01*
X143578451Y-88998626D01*
X143617458Y-89109349D01*
X143644847Y-89212243D01*
X143654500Y-89256106D01*
X143674700Y-89369092D01*
X143686147Y-89471440D01*
X143688328Y-89580216D01*
X143674941Y-89687760D01*
X143638632Y-89785137D01*
X143632518Y-89795394D01*
X143566637Y-89873082D01*
X143482750Y-89925344D01*
X143380856Y-89952182D01*
X143316468Y-89956106D01*
X143210035Y-89943638D01*
X143117986Y-89910665D01*
X143030421Y-89857084D01*
X143021911Y-89850593D01*
X142948341Y-89781659D01*
X142888135Y-89704295D01*
X142832814Y-89611788D01*
X142788415Y-89518422D01*
G37*
G36*
X141358226Y-88799761D02*
G01*
X141471123Y-88807254D01*
X141572940Y-88824284D01*
X141675736Y-88855425D01*
X141764060Y-88899023D01*
X141841089Y-88955565D01*
X141910484Y-89025540D01*
X141972247Y-89108949D01*
X142026377Y-89205792D01*
X141697138Y-89268318D01*
X141649728Y-89193782D01*
X141575505Y-89122260D01*
X141506304Y-89092458D01*
X141408931Y-89080739D01*
X141312028Y-89087540D01*
X141216468Y-89129099D01*
X141189479Y-89193824D01*
X141196440Y-89291277D01*
X141204744Y-89330844D01*
X141290124Y-89359342D01*
X141394457Y-89386214D01*
X141493609Y-89407916D01*
X141591136Y-89427076D01*
X141603841Y-89429531D01*
X141710329Y-89452788D01*
X141812062Y-89481076D01*
X141911095Y-89518422D01*
X141953020Y-89539654D01*
X142034905Y-89596851D01*
X142104535Y-89669364D01*
X142131858Y-89707146D01*
X142178685Y-89795604D01*
X142208582Y-89893091D01*
X142212979Y-89916586D01*
X142219161Y-90015938D01*
X142199927Y-90114093D01*
X142147033Y-90207187D01*
X142112384Y-90242932D01*
X142025697Y-90296245D01*
X141927856Y-90323508D01*
X141825121Y-90331263D01*
X141778398Y-90329528D01*
X141678344Y-90313869D01*
X141579901Y-90281926D01*
X141512264Y-90250232D01*
X141422803Y-90195713D01*
X141341520Y-90133426D01*
X141338101Y-90180809D01*
X141336857Y-90199982D01*
X141326866Y-90300000D01*
X140953663Y-90300000D01*
X140973433Y-90204437D01*
X140980529Y-90103140D01*
X140974301Y-90019975D01*
X140958937Y-89918637D01*
X140939497Y-89817864D01*
X140894732Y-89612212D01*
X141262874Y-89612212D01*
X141278017Y-89684996D01*
X141296478Y-89765628D01*
X141329797Y-89863782D01*
X141369894Y-89922072D01*
X141445079Y-89984926D01*
X141465007Y-89996537D01*
X141556984Y-90035619D01*
X141653663Y-90049895D01*
X141706509Y-90044457D01*
X141792881Y-89994207D01*
X141814511Y-89960947D01*
X141824144Y-89860851D01*
X141796856Y-89797699D01*
X141723028Y-89731891D01*
X141698682Y-89720133D01*
X141604307Y-89690437D01*
X141504675Y-89668387D01*
X141464993Y-89660350D01*
X141362159Y-89637979D01*
X141262874Y-89612212D01*
X140894732Y-89612212D01*
X140840822Y-89364549D01*
X140831665Y-89318501D01*
X140816007Y-89221906D01*
X140807622Y-89120038D01*
X140818841Y-89017236D01*
X140823000Y-89005520D01*
X140878810Y-88921134D01*
X140960501Y-88860921D01*
X141015626Y-88836938D01*
X141118055Y-88812895D01*
X141220057Y-88802317D01*
X141323935Y-88799371D01*
X141358226Y-88799761D01*
G37*
G36*
X140275156Y-90300000D02*
G01*
X140652267Y-90300000D01*
X140346963Y-88830635D01*
X139996231Y-88830635D01*
X140039217Y-89038241D01*
X139974478Y-88963533D01*
X139903853Y-88893947D01*
X139837473Y-88845289D01*
X139742453Y-88808160D01*
X139664060Y-88799371D01*
X139563634Y-88812432D01*
X139471914Y-88851613D01*
X139432518Y-88878506D01*
X139624005Y-89238032D01*
X139711443Y-89188482D01*
X139788136Y-89174528D01*
X139885909Y-89193462D01*
X139931751Y-89218492D01*
X140001114Y-89290363D01*
X140051430Y-89377250D01*
X140088238Y-89473258D01*
X140116388Y-89569700D01*
X140142079Y-89671526D01*
X140164590Y-89769893D01*
X140183321Y-89857431D01*
X140275156Y-90300000D01*
G37*
G36*
X147634682Y-93660000D02*
G01*
X147904814Y-92190635D01*
X147508164Y-92190635D01*
X147395324Y-92940460D01*
X147369434Y-93191053D01*
X147323719Y-93104294D01*
X147303977Y-93065024D01*
X147257072Y-92975592D01*
X147238031Y-92940460D01*
X146811095Y-92190635D01*
X146422749Y-92190635D01*
X147295184Y-93660000D01*
X147634682Y-93660000D01*
G37*
G36*
X145584507Y-93660000D02*
G01*
X145961618Y-93660000D01*
X145655826Y-92189658D01*
X145735541Y-92253213D01*
X145817761Y-92311378D01*
X145902485Y-92364153D01*
X145989714Y-92411537D01*
X146079447Y-92453530D01*
X146171684Y-92490134D01*
X146209281Y-92503265D01*
X146131123Y-92128108D01*
X146038932Y-92094028D01*
X145939863Y-92046192D01*
X145846028Y-91992122D01*
X145772086Y-91944438D01*
X145688591Y-91882875D01*
X145614633Y-91817012D01*
X145541788Y-91736473D01*
X145481399Y-91650316D01*
X145468248Y-91627899D01*
X145161967Y-91627899D01*
X145584507Y-93660000D01*
G37*
G36*
X144912839Y-93660000D02*
G01*
X144834682Y-93284842D01*
X144456594Y-93284842D01*
X144534752Y-93660000D01*
X144912839Y-93660000D01*
G37*
G36*
X143190178Y-91628706D02*
G01*
X143292502Y-91640813D01*
X143389022Y-91667449D01*
X143479737Y-91708614D01*
X143564648Y-91764307D01*
X143643754Y-91834528D01*
X143658986Y-91850533D01*
X143731429Y-91939915D01*
X143784918Y-92022653D01*
X143834439Y-92115373D01*
X143879990Y-92218078D01*
X143921572Y-92330765D01*
X143959186Y-92453436D01*
X143984791Y-92551991D01*
X144008164Y-92656161D01*
X144015461Y-92692176D01*
X144034428Y-92796059D01*
X144052891Y-92924859D01*
X144063554Y-93042561D01*
X144066416Y-93149166D01*
X144059024Y-93266815D01*
X144039444Y-93367124D01*
X143999860Y-93464605D01*
X143955696Y-93529902D01*
X143880883Y-93602725D01*
X143790923Y-93653855D01*
X143685817Y-93683294D01*
X143583670Y-93691263D01*
X143548272Y-93690455D01*
X143445947Y-93678348D01*
X143349428Y-93651712D01*
X143258712Y-93610548D01*
X143173802Y-93554855D01*
X143094696Y-93484633D01*
X143079492Y-93468626D01*
X143007152Y-93379143D01*
X142953693Y-93296223D01*
X142904158Y-93203227D01*
X142858545Y-93100157D01*
X142816856Y-92987011D01*
X142779090Y-92863791D01*
X142753340Y-92764764D01*
X142729797Y-92660069D01*
X142722601Y-92624484D01*
X142704052Y-92521553D01*
X142686413Y-92393234D01*
X142676880Y-92275112D01*
X142676461Y-92243454D01*
X143061164Y-92243454D01*
X143069453Y-92341350D01*
X143084870Y-92449097D01*
X143104150Y-92557862D01*
X143124493Y-92660069D01*
X143142399Y-92743036D01*
X143169087Y-92855750D01*
X143195568Y-92954382D01*
X143226202Y-93051654D01*
X143265177Y-93148555D01*
X143313303Y-93233345D01*
X143380948Y-93303893D01*
X143416819Y-93324909D01*
X143512351Y-93347369D01*
X143533009Y-93346331D01*
X143625191Y-93304870D01*
X143662082Y-93235071D01*
X143677459Y-93133412D01*
X143677591Y-93077478D01*
X143669058Y-92979339D01*
X143653427Y-92871377D01*
X143633963Y-92762429D01*
X143613468Y-92660069D01*
X143595668Y-92577195D01*
X143569084Y-92464503D01*
X143542637Y-92365757D01*
X143511956Y-92268177D01*
X143472784Y-92170607D01*
X143425233Y-92085816D01*
X143357501Y-92015268D01*
X143321433Y-91994252D01*
X143226098Y-91971793D01*
X143205323Y-91972854D01*
X143113747Y-92015268D01*
X143077099Y-92085587D01*
X143061479Y-92187704D01*
X143061164Y-92243454D01*
X142676461Y-92243454D01*
X142675453Y-92167187D01*
X142685068Y-92046621D01*
X142707348Y-91941988D01*
X142750802Y-91837459D01*
X142791834Y-91777088D01*
X142863024Y-91709759D01*
X142950249Y-91662485D01*
X143053508Y-91635266D01*
X143154779Y-91627899D01*
X143190178Y-91628706D01*
G37*
D11*
G36*
X137321068Y-93580441D02*
G01*
X137371751Y-93587667D01*
X137418492Y-93602543D01*
X137465805Y-93628046D01*
X137483226Y-93640769D01*
X137522138Y-93678121D01*
X137551490Y-93718508D01*
X137575470Y-93765310D01*
X137590126Y-93804882D01*
X137603680Y-93858061D01*
X137610732Y-93907505D01*
X137613083Y-93958995D01*
X137612762Y-93977906D01*
X137607939Y-94032603D01*
X137597329Y-94084243D01*
X137580931Y-94132827D01*
X137558746Y-94178353D01*
X137530773Y-94220823D01*
X137497429Y-94257926D01*
X137452492Y-94291511D01*
X137401058Y-94314647D01*
X137351799Y-94326161D01*
X137297766Y-94330000D01*
X137275449Y-94329167D01*
X137226115Y-94320745D01*
X137174427Y-94300015D01*
X137133307Y-94272159D01*
X137096021Y-94235233D01*
X137096296Y-94290707D01*
X137098443Y-94345366D01*
X137104814Y-94394480D01*
X137109435Y-94409558D01*
X137133004Y-94455539D01*
X137168073Y-94490956D01*
X137201069Y-94509116D01*
X137250803Y-94522031D01*
X137300697Y-94525394D01*
X137329370Y-94524192D01*
X137379608Y-94514575D01*
X137426238Y-94491200D01*
X137453959Y-94458288D01*
X137468247Y-94410355D01*
X137588415Y-94392526D01*
X137586503Y-94434503D01*
X137574871Y-94484008D01*
X137549377Y-94530870D01*
X137510746Y-94568381D01*
X137500506Y-94575479D01*
X137455634Y-94599293D01*
X137404503Y-94615779D01*
X137354629Y-94624194D01*
X137299964Y-94626999D01*
X137259967Y-94625539D01*
X137210432Y-94619051D01*
X137159886Y-94605549D01*
X137114828Y-94585478D01*
X137105583Y-94580170D01*
X137064109Y-94550112D01*
X137030555Y-94514186D01*
X137004919Y-94472393D01*
X136993132Y-94442128D01*
X136981210Y-94390822D01*
X136974334Y-94335660D01*
X136971083Y-94280752D01*
X136970236Y-94229616D01*
X136970236Y-93954110D01*
X137085519Y-93954110D01*
X137085575Y-93962890D01*
X137089137Y-94020239D01*
X137098238Y-94070387D01*
X137115423Y-94118885D01*
X137143404Y-94162205D01*
X137150717Y-94170220D01*
X137190516Y-94202539D01*
X137235706Y-94221931D01*
X137286286Y-94228394D01*
X137296891Y-94228134D01*
X137346565Y-94219018D01*
X137390657Y-94196879D01*
X137429168Y-94161716D01*
X137436060Y-94153075D01*
X137461569Y-94106611D01*
X137476685Y-94054896D01*
X137484076Y-94001606D01*
X137486077Y-93949958D01*
X137486021Y-93941687D01*
X137482474Y-93887386D01*
X137473412Y-93839372D01*
X137456299Y-93792199D01*
X137428436Y-93748946D01*
X137424809Y-93744783D01*
X137385864Y-93710427D01*
X137337404Y-93687897D01*
X137288240Y-93681290D01*
X137277864Y-93681560D01*
X137228844Y-93690976D01*
X137184594Y-93713845D01*
X137145114Y-93750167D01*
X137141448Y-93754522D01*
X137113687Y-93799574D01*
X137096926Y-93848476D01*
X137088371Y-93898102D01*
X137085519Y-93954110D01*
X136970236Y-93954110D01*
X136970236Y-93595317D01*
X137084298Y-93595317D01*
X137084298Y-93683244D01*
X137105951Y-93658973D01*
X137147261Y-93624285D01*
X137192919Y-93599507D01*
X137242924Y-93584641D01*
X137297277Y-93579685D01*
X137321068Y-93580441D01*
G37*
G36*
X136786321Y-93454633D02*
G01*
X136786321Y-93313949D01*
X136662734Y-93313949D01*
X136662734Y-93454633D01*
X136786321Y-93454633D01*
G37*
G36*
X136786321Y-94330000D02*
G01*
X136786321Y-93595317D01*
X136662734Y-93595317D01*
X136662734Y-94330000D01*
X136786321Y-94330000D01*
G37*
G36*
X136206489Y-94216671D02*
G01*
X136188659Y-94330000D01*
X136238118Y-94341723D01*
X136281960Y-94345631D01*
X136331733Y-94342084D01*
X136379269Y-94327979D01*
X136386496Y-94324138D01*
X136424315Y-94291718D01*
X136438764Y-94267229D01*
X136449458Y-94217137D01*
X136452950Y-94164720D01*
X136453663Y-94118974D01*
X136453663Y-93693014D01*
X136544521Y-93693014D01*
X136544521Y-93595317D01*
X136453663Y-93595317D01*
X136453663Y-93417997D01*
X136330808Y-93345212D01*
X136330808Y-93595317D01*
X136206489Y-93595317D01*
X136206489Y-93693014D01*
X136330808Y-93693014D01*
X136330808Y-94128988D01*
X136328570Y-94179685D01*
X136324458Y-94198597D01*
X136303209Y-94223265D01*
X136260711Y-94232302D01*
X136212693Y-94219464D01*
X136206489Y-94216671D01*
G37*
G36*
X136087543Y-94330000D02*
G01*
X136087543Y-93313949D01*
X135963956Y-93313949D01*
X135963956Y-93679092D01*
X135923955Y-93640359D01*
X135879606Y-93611138D01*
X135830910Y-93591432D01*
X135777865Y-93581239D01*
X135745603Y-93579685D01*
X135692365Y-93583495D01*
X135644149Y-93594924D01*
X135604674Y-93611926D01*
X135561698Y-93641993D01*
X135530009Y-93680204D01*
X135519189Y-93700586D01*
X135503413Y-93750262D01*
X135495828Y-93802627D01*
X135493401Y-93851697D01*
X135493300Y-93864961D01*
X135493300Y-94330000D01*
X135617131Y-94330000D01*
X135617131Y-93863984D01*
X135621066Y-93810504D01*
X135634487Y-93763190D01*
X135657431Y-93727941D01*
X135698884Y-93698722D01*
X135748847Y-93686242D01*
X135771004Y-93685198D01*
X135821075Y-93691531D01*
X135868248Y-93710529D01*
X135874319Y-93714019D01*
X135913592Y-93745371D01*
X135942115Y-93788869D01*
X135943439Y-93791933D01*
X135957464Y-93842041D01*
X135962974Y-93891448D01*
X135963956Y-93927487D01*
X135963956Y-94330000D01*
X136087543Y-94330000D01*
G37*
G36*
X134830913Y-94330000D02*
G01*
X134830913Y-94222777D01*
X134865025Y-94264528D01*
X134903430Y-94297641D01*
X134946129Y-94322116D01*
X134993121Y-94337953D01*
X135044406Y-94345151D01*
X135062455Y-94345631D01*
X135113435Y-94341519D01*
X135161592Y-94329185D01*
X135182867Y-94320718D01*
X135226337Y-94296489D01*
X135262623Y-94262844D01*
X135266154Y-94258192D01*
X135290410Y-94213472D01*
X135304256Y-94166113D01*
X135310164Y-94115054D01*
X135311761Y-94064404D01*
X135311827Y-94049853D01*
X135311827Y-93595317D01*
X135187996Y-93595317D01*
X135187996Y-94003203D01*
X135187397Y-94053115D01*
X135184735Y-94103976D01*
X135180425Y-94134849D01*
X135160783Y-94181082D01*
X135131088Y-94212030D01*
X135085832Y-94233946D01*
X135037543Y-94240118D01*
X134987014Y-94233839D01*
X134939383Y-94215002D01*
X134933251Y-94211542D01*
X134893734Y-94179961D01*
X134865425Y-94136218D01*
X134864130Y-94133140D01*
X134851005Y-94085478D01*
X134845125Y-94033626D01*
X134843858Y-93989281D01*
X134843858Y-93595317D01*
X134720271Y-93595317D01*
X134720271Y-94330000D01*
X134830913Y-94330000D01*
G37*
G36*
X134530983Y-94330000D02*
G01*
X134416189Y-94330000D01*
X134416189Y-94237920D01*
X134396943Y-94263165D01*
X134359094Y-94299244D01*
X134315939Y-94325014D01*
X134267478Y-94340477D01*
X134213711Y-94345631D01*
X134174018Y-94343121D01*
X134121514Y-94331171D01*
X134072585Y-94309381D01*
X134027233Y-94277750D01*
X133991206Y-94242805D01*
X133964468Y-94208585D01*
X133938365Y-94162011D01*
X133918787Y-94109426D01*
X133907458Y-94061014D01*
X133900660Y-94008428D01*
X133898804Y-93961926D01*
X134024667Y-93961926D01*
X134024725Y-93970635D01*
X134028362Y-94027795D01*
X134037655Y-94078293D01*
X134055202Y-94127847D01*
X134083774Y-94173196D01*
X134091248Y-94181773D01*
X134131195Y-94216358D01*
X134175436Y-94237109D01*
X134223970Y-94244026D01*
X134259888Y-94240651D01*
X134308323Y-94222935D01*
X134350228Y-94190033D01*
X134381995Y-94148039D01*
X134397596Y-94114028D01*
X134409819Y-94064818D01*
X134415948Y-94011344D01*
X134417654Y-93957041D01*
X134417596Y-93948722D01*
X134413960Y-93893950D01*
X134404667Y-93845232D01*
X134387120Y-93796967D01*
X134358547Y-93752121D01*
X134351073Y-93743544D01*
X134311126Y-93708959D01*
X134266886Y-93688208D01*
X134218352Y-93681290D01*
X134165907Y-93689372D01*
X134119061Y-93713615D01*
X134081332Y-93749678D01*
X134074470Y-93758522D01*
X134049071Y-93805613D01*
X134034019Y-93857496D01*
X134026660Y-93910632D01*
X134024667Y-93961926D01*
X133898804Y-93961926D01*
X133898394Y-93951667D01*
X133900541Y-93903010D01*
X133907861Y-93851690D01*
X133920376Y-93802679D01*
X133930799Y-93773100D01*
X133952420Y-93726961D01*
X133981192Y-93683489D01*
X133996502Y-93665769D01*
X134034799Y-93632736D01*
X134080111Y-93607041D01*
X134106736Y-93596382D01*
X134157982Y-93583532D01*
X134207361Y-93579685D01*
X134229787Y-93580548D01*
X134279160Y-93589274D01*
X134330520Y-93610752D01*
X134371026Y-93639613D01*
X134407396Y-93677871D01*
X134407396Y-93313949D01*
X134530983Y-93313949D01*
X134530983Y-94330000D01*
G37*
G36*
X133716677Y-94330000D02*
G01*
X133716677Y-94189316D01*
X133575749Y-94189316D01*
X133575749Y-94330000D01*
X133716677Y-94330000D01*
G37*
G36*
X132886740Y-94064263D02*
G01*
X132765107Y-94080139D01*
X132776838Y-94132053D01*
X132794506Y-94178801D01*
X132821968Y-94225901D01*
X132857185Y-94266255D01*
X132867201Y-94275289D01*
X132910584Y-94306064D01*
X132958670Y-94328046D01*
X133011456Y-94341235D01*
X133061502Y-94345562D01*
X133068945Y-94345631D01*
X133123030Y-94342179D01*
X133172993Y-94331824D01*
X133218834Y-94314564D01*
X133267106Y-94285703D01*
X133304017Y-94253486D01*
X133309769Y-94247445D01*
X133340646Y-94207537D01*
X133365135Y-94161636D01*
X133383236Y-94109741D01*
X133393440Y-94061917D01*
X133399207Y-94009931D01*
X133400627Y-93965345D01*
X133398757Y-93914839D01*
X133392040Y-93860609D01*
X133380439Y-93810104D01*
X133363952Y-93763324D01*
X133361548Y-93757739D01*
X133336222Y-93711128D01*
X133304481Y-93671589D01*
X133266326Y-93639120D01*
X133242358Y-93624138D01*
X133196194Y-93602650D01*
X133147827Y-93588194D01*
X133097258Y-93580771D01*
X133068212Y-93579685D01*
X133018254Y-93582572D01*
X132966253Y-93592941D01*
X132919687Y-93610851D01*
X132873795Y-93640013D01*
X132835514Y-93677947D01*
X132805849Y-93723879D01*
X132786714Y-93771423D01*
X132776831Y-93811228D01*
X132896998Y-93829790D01*
X132912037Y-93783269D01*
X132937848Y-93739527D01*
X132958059Y-93718660D01*
X133002842Y-93691837D01*
X133051902Y-93681619D01*
X133063328Y-93681290D01*
X133113165Y-93686623D01*
X133162013Y-93705056D01*
X133203992Y-93736654D01*
X133215247Y-93748702D01*
X133243465Y-93792822D01*
X133260794Y-93842453D01*
X133269972Y-93893919D01*
X133273393Y-93944005D01*
X133273621Y-93961926D01*
X133271637Y-94014588D01*
X133264309Y-94068842D01*
X133249323Y-94121373D01*
X133224033Y-94168392D01*
X133217201Y-94177103D01*
X133178599Y-94212395D01*
X133133318Y-94234615D01*
X133081360Y-94243765D01*
X133070166Y-94244026D01*
X133018978Y-94237844D01*
X132971199Y-94217193D01*
X132948778Y-94200062D01*
X132917156Y-94160243D01*
X132896980Y-94112035D01*
X132886740Y-94064263D01*
G37*
G36*
X132400418Y-93580956D02*
G01*
X132455384Y-93589296D01*
X132506399Y-93605420D01*
X132553465Y-93629327D01*
X132596579Y-93661018D01*
X132603522Y-93667258D01*
X132640547Y-93709012D01*
X132669639Y-93758168D01*
X132687821Y-93804785D01*
X132700494Y-93856542D01*
X132707657Y-93913440D01*
X132709420Y-93962658D01*
X132707943Y-94007706D01*
X132701943Y-94060194D01*
X132691328Y-94108437D01*
X132672497Y-94160724D01*
X132647020Y-94206897D01*
X132614898Y-94246957D01*
X132602853Y-94258906D01*
X132563973Y-94290127D01*
X132520971Y-94314410D01*
X132473847Y-94331755D01*
X132422602Y-94342162D01*
X132367235Y-94345631D01*
X132337756Y-94344540D01*
X132286526Y-94337076D01*
X132237652Y-94322541D01*
X132191136Y-94300935D01*
X132166815Y-94286008D01*
X132127784Y-94254693D01*
X132094858Y-94217658D01*
X132068038Y-94174905D01*
X132058135Y-94153691D01*
X132042289Y-94105605D01*
X132032758Y-94057345D01*
X132027269Y-94003310D01*
X132025955Y-93958262D01*
X132153034Y-93958262D01*
X132153273Y-93976047D01*
X132156851Y-94025932D01*
X132166451Y-94077556D01*
X132184579Y-94127881D01*
X132214095Y-94173440D01*
X132225817Y-94186054D01*
X132268826Y-94219142D01*
X132317894Y-94238443D01*
X132367235Y-94244026D01*
X132384359Y-94243410D01*
X132437405Y-94232457D01*
X132484250Y-94207813D01*
X132521108Y-94173928D01*
X132532021Y-94160117D01*
X132555873Y-94117199D01*
X132572092Y-94065427D01*
X132580022Y-94012864D01*
X132582169Y-93962414D01*
X132581931Y-93945016D01*
X132578353Y-93896178D01*
X132568753Y-93845560D01*
X132550625Y-93796097D01*
X132521108Y-93751144D01*
X132509381Y-93738660D01*
X132466256Y-93705917D01*
X132416931Y-93686816D01*
X132367235Y-93681290D01*
X132350372Y-93681909D01*
X132297974Y-93692900D01*
X132251444Y-93717629D01*
X132214584Y-93751632D01*
X132207130Y-93760654D01*
X132179542Y-93807675D01*
X132163193Y-93858294D01*
X132155198Y-93909398D01*
X132153034Y-93958262D01*
X132025955Y-93958262D01*
X132025784Y-93952400D01*
X132026623Y-93920322D01*
X132031753Y-93869815D01*
X132044063Y-93814088D01*
X132063088Y-93763684D01*
X132088828Y-93718604D01*
X132121283Y-93678848D01*
X132133435Y-93666840D01*
X132172467Y-93635464D01*
X132215363Y-93611061D01*
X132262123Y-93593630D01*
X132312747Y-93583172D01*
X132367235Y-93579685D01*
X132400418Y-93580956D01*
G37*
G36*
X131884612Y-94330000D02*
G01*
X131884612Y-93595317D01*
X131773970Y-93595317D01*
X131773970Y-93696922D01*
X131742438Y-93657443D01*
X131703409Y-93624737D01*
X131682867Y-93611926D01*
X131637804Y-93592279D01*
X131588345Y-93581700D01*
X131552930Y-93579685D01*
X131500645Y-93583611D01*
X131451506Y-93596845D01*
X131420062Y-93612903D01*
X131380431Y-93647063D01*
X131352582Y-93691415D01*
X131346789Y-93705959D01*
X131312528Y-93663046D01*
X131274592Y-93629011D01*
X131225689Y-93600526D01*
X131171783Y-93584125D01*
X131121597Y-93579685D01*
X131070398Y-93583471D01*
X131020316Y-93596781D01*
X130974005Y-93622808D01*
X130954535Y-93640258D01*
X130923752Y-93684355D01*
X130905795Y-93734973D01*
X130897586Y-93788661D01*
X130896161Y-93826371D01*
X130896161Y-94330000D01*
X131019259Y-94330000D01*
X131019259Y-93866182D01*
X131020942Y-93815887D01*
X131028422Y-93767314D01*
X131031227Y-93758471D01*
X131058651Y-93717760D01*
X131074947Y-93705471D01*
X131121033Y-93687594D01*
X131148952Y-93685198D01*
X131198758Y-93691317D01*
X131246047Y-93711948D01*
X131276691Y-93736978D01*
X131305615Y-93779768D01*
X131321491Y-93831440D01*
X131327047Y-93881537D01*
X131327494Y-93902330D01*
X131327494Y-94330000D01*
X131451325Y-94330000D01*
X131451325Y-93851528D01*
X131454904Y-93799342D01*
X131468361Y-93750320D01*
X131481611Y-93726964D01*
X131521300Y-93695640D01*
X131571857Y-93685362D01*
X131580285Y-93685198D01*
X131630599Y-93692159D01*
X131677005Y-93713042D01*
X131715168Y-93747114D01*
X131739966Y-93790813D01*
X131741241Y-93794131D01*
X131754050Y-93845212D01*
X131759460Y-93895148D01*
X131761025Y-93948004D01*
X131761025Y-94330000D01*
X131884612Y-94330000D01*
G37*
G36*
X130811897Y-94345631D02*
G01*
X130520027Y-93298318D01*
X130421108Y-93298318D01*
X130712246Y-94345631D01*
X130811897Y-94345631D01*
G37*
G36*
X130127773Y-94330000D02*
G01*
X130405233Y-93595317D01*
X130274563Y-93595317D01*
X130118003Y-94036175D01*
X130101030Y-94085871D01*
X130085039Y-94136894D01*
X130071353Y-94184431D01*
X130057110Y-94137502D01*
X130040917Y-94088630D01*
X130025435Y-94044480D01*
X129863258Y-93595317D01*
X129736007Y-93595317D01*
X130012246Y-94330000D01*
X130127773Y-94330000D01*
G37*
G36*
X129630006Y-93454633D02*
G01*
X129630006Y-93313949D01*
X129506419Y-93313949D01*
X129506419Y-93454633D01*
X129630006Y-93454633D01*
G37*
G36*
X129630006Y-94330000D02*
G01*
X129630006Y-93595317D01*
X129506419Y-93595317D01*
X129506419Y-94330000D01*
X129630006Y-94330000D01*
G37*
G36*
X128844032Y-94064263D02*
G01*
X128722399Y-94080139D01*
X128734130Y-94132053D01*
X128751798Y-94178801D01*
X128779260Y-94225901D01*
X128814477Y-94266255D01*
X128824493Y-94275289D01*
X128867877Y-94306064D01*
X128915962Y-94328046D01*
X128968749Y-94341235D01*
X129018794Y-94345562D01*
X129026238Y-94345631D01*
X129080322Y-94342179D01*
X129130285Y-94331824D01*
X129176126Y-94314564D01*
X129224399Y-94285703D01*
X129261310Y-94253486D01*
X129267061Y-94247445D01*
X129297939Y-94207537D01*
X129322428Y-94161636D01*
X129340528Y-94109741D01*
X129350732Y-94061917D01*
X129356500Y-94009931D01*
X129357919Y-93965345D01*
X129356049Y-93914839D01*
X129349333Y-93860609D01*
X129337731Y-93810104D01*
X129321245Y-93763324D01*
X129318840Y-93757739D01*
X129293514Y-93711128D01*
X129261774Y-93671589D01*
X129223619Y-93639120D01*
X129199650Y-93624138D01*
X129153486Y-93602650D01*
X129105119Y-93588194D01*
X129054550Y-93580771D01*
X129025505Y-93579685D01*
X128975546Y-93582572D01*
X128923545Y-93592941D01*
X128876979Y-93610851D01*
X128831088Y-93640013D01*
X128792806Y-93677947D01*
X128763141Y-93723879D01*
X128744006Y-93771423D01*
X128734123Y-93811228D01*
X128854291Y-93829790D01*
X128869330Y-93783269D01*
X128895140Y-93739527D01*
X128915351Y-93718660D01*
X128960134Y-93691837D01*
X129009195Y-93681619D01*
X129020620Y-93681290D01*
X129070457Y-93686623D01*
X129119306Y-93705056D01*
X129161285Y-93736654D01*
X129172539Y-93748702D01*
X129200757Y-93792822D01*
X129218087Y-93842453D01*
X129227265Y-93893919D01*
X129230685Y-93944005D01*
X129230913Y-93961926D01*
X129228930Y-94014588D01*
X129221602Y-94068842D01*
X129206615Y-94121373D01*
X129181325Y-94168392D01*
X129174493Y-94177103D01*
X129135891Y-94212395D01*
X129090611Y-94234615D01*
X129038652Y-94243765D01*
X129027459Y-94244026D01*
X128976271Y-94237844D01*
X128928492Y-94217193D01*
X128906070Y-94200062D01*
X128874448Y-94160243D01*
X128854272Y-94112035D01*
X128844032Y-94064263D01*
G37*
G36*
X128350662Y-94216671D02*
G01*
X128332832Y-94330000D01*
X128382291Y-94341723D01*
X128426133Y-94345631D01*
X128475906Y-94342084D01*
X128523442Y-94327979D01*
X128530669Y-94324138D01*
X128568488Y-94291718D01*
X128582937Y-94267229D01*
X128593631Y-94217137D01*
X128597123Y-94164720D01*
X128597836Y-94118974D01*
X128597836Y-93693014D01*
X128688694Y-93693014D01*
X128688694Y-93595317D01*
X128597836Y-93595317D01*
X128597836Y-93417997D01*
X128474981Y-93345212D01*
X128474981Y-93595317D01*
X128350662Y-93595317D01*
X128350662Y-93693014D01*
X128474981Y-93693014D01*
X128474981Y-94128988D01*
X128472743Y-94179685D01*
X128468631Y-94198597D01*
X128447382Y-94223265D01*
X128404884Y-94232302D01*
X128356866Y-94219464D01*
X128350662Y-94216671D01*
G37*
G36*
X127968876Y-93580956D02*
G01*
X128023842Y-93589296D01*
X128074857Y-93605420D01*
X128121922Y-93629327D01*
X128165037Y-93661018D01*
X128171980Y-93667258D01*
X128209005Y-93709012D01*
X128238097Y-93758168D01*
X128256279Y-93804785D01*
X128268952Y-93856542D01*
X128276114Y-93913440D01*
X128277877Y-93962658D01*
X128276401Y-94007706D01*
X128270401Y-94060194D01*
X128259785Y-94108437D01*
X128240955Y-94160724D01*
X128215478Y-94206897D01*
X128183355Y-94246957D01*
X128171311Y-94258906D01*
X128132431Y-94290127D01*
X128089429Y-94314410D01*
X128042305Y-94331755D01*
X127991060Y-94342162D01*
X127935693Y-94345631D01*
X127906214Y-94344540D01*
X127854983Y-94337076D01*
X127806110Y-94322541D01*
X127759594Y-94300935D01*
X127735272Y-94286008D01*
X127696242Y-94254693D01*
X127663316Y-94217658D01*
X127636496Y-94174905D01*
X127626592Y-94153691D01*
X127610747Y-94105605D01*
X127601215Y-94057345D01*
X127595727Y-94003310D01*
X127594413Y-93958262D01*
X127721492Y-93958262D01*
X127721731Y-93976047D01*
X127725309Y-94025932D01*
X127734909Y-94077556D01*
X127753036Y-94127881D01*
X127782553Y-94173440D01*
X127794274Y-94186054D01*
X127837284Y-94219142D01*
X127886352Y-94238443D01*
X127935693Y-94244026D01*
X127952816Y-94243410D01*
X128005863Y-94232457D01*
X128052708Y-94207813D01*
X128089566Y-94173928D01*
X128100478Y-94160117D01*
X128124330Y-94117199D01*
X128140550Y-94065427D01*
X128148480Y-94012864D01*
X128150627Y-93962414D01*
X128150388Y-93945016D01*
X128146811Y-93896178D01*
X128137210Y-93845560D01*
X128119083Y-93796097D01*
X128089566Y-93751144D01*
X128077838Y-93738660D01*
X128034714Y-93705917D01*
X127985389Y-93686816D01*
X127935693Y-93681290D01*
X127918830Y-93681909D01*
X127866432Y-93692900D01*
X127819902Y-93717629D01*
X127783041Y-93751632D01*
X127775588Y-93760654D01*
X127747999Y-93807675D01*
X127731650Y-93858294D01*
X127723656Y-93909398D01*
X127721492Y-93958262D01*
X127594413Y-93958262D01*
X127594242Y-93952400D01*
X127595081Y-93920322D01*
X127600210Y-93869815D01*
X127612521Y-93814088D01*
X127631546Y-93763684D01*
X127657286Y-93718604D01*
X127689741Y-93678848D01*
X127701893Y-93666840D01*
X127740925Y-93635464D01*
X127783821Y-93611061D01*
X127830581Y-93593630D01*
X127881205Y-93583172D01*
X127935693Y-93579685D01*
X127968876Y-93580956D01*
G37*
G36*
X127454535Y-94330000D02*
G01*
X127454535Y-93595317D01*
X127343160Y-93595317D01*
X127343160Y-93707913D01*
X127317243Y-93664135D01*
X127285476Y-93622843D01*
X127264758Y-93604598D01*
X127219249Y-93583797D01*
X127185135Y-93579685D01*
X127134010Y-93586296D01*
X127086245Y-93604134D01*
X127058129Y-93619741D01*
X127100627Y-93735268D01*
X127146056Y-93715301D01*
X127191485Y-93708646D01*
X127241123Y-93719270D01*
X127264270Y-93733314D01*
X127297319Y-93771286D01*
X127310187Y-93801214D01*
X127322838Y-93852608D01*
X127329306Y-93902797D01*
X127330948Y-93946050D01*
X127330948Y-94330000D01*
X127454535Y-94330000D01*
G37*
G36*
X126987054Y-94330000D02*
G01*
X126987054Y-93313949D01*
X126863467Y-93313949D01*
X126863467Y-93679092D01*
X126823466Y-93640359D01*
X126779117Y-93611138D01*
X126730421Y-93591432D01*
X126677377Y-93581239D01*
X126645114Y-93579685D01*
X126591876Y-93583495D01*
X126543661Y-93594924D01*
X126504186Y-93611926D01*
X126461210Y-93641993D01*
X126429520Y-93680204D01*
X126418701Y-93700586D01*
X126402924Y-93750262D01*
X126395339Y-93802627D01*
X126392912Y-93851697D01*
X126392811Y-93864961D01*
X126392811Y-94330000D01*
X126516642Y-94330000D01*
X126516642Y-93863984D01*
X126520578Y-93810504D01*
X126533998Y-93763190D01*
X126556942Y-93727941D01*
X126598396Y-93698722D01*
X126648358Y-93686242D01*
X126670515Y-93685198D01*
X126720586Y-93691531D01*
X126767759Y-93710529D01*
X126773830Y-93714019D01*
X126813103Y-93745371D01*
X126841626Y-93788869D01*
X126842951Y-93791933D01*
X126856976Y-93842041D01*
X126862485Y-93891448D01*
X126863467Y-93927487D01*
X126863467Y-94330000D01*
X126987054Y-94330000D01*
G37*
G36*
X125730425Y-94330000D02*
G01*
X125730425Y-94222777D01*
X125764537Y-94264528D01*
X125802942Y-94297641D01*
X125845640Y-94322116D01*
X125892632Y-94337953D01*
X125943918Y-94345151D01*
X125961967Y-94345631D01*
X126012946Y-94341519D01*
X126061104Y-94329185D01*
X126082379Y-94320718D01*
X126125849Y-94296489D01*
X126162134Y-94262844D01*
X126165665Y-94258192D01*
X126189921Y-94213472D01*
X126203767Y-94166113D01*
X126209675Y-94115054D01*
X126211272Y-94064404D01*
X126211339Y-94049853D01*
X126211339Y-93595317D01*
X126087508Y-93595317D01*
X126087508Y-94003203D01*
X126086909Y-94053115D01*
X126084247Y-94103976D01*
X126079936Y-94134849D01*
X126060295Y-94181082D01*
X126030599Y-94212030D01*
X125985343Y-94233946D01*
X125937054Y-94240118D01*
X125886525Y-94233839D01*
X125838894Y-94215002D01*
X125832762Y-94211542D01*
X125793246Y-94179961D01*
X125764937Y-94136218D01*
X125763642Y-94133140D01*
X125750516Y-94085478D01*
X125744636Y-94033626D01*
X125743369Y-93989281D01*
X125743369Y-93595317D01*
X125619783Y-93595317D01*
X125619783Y-94330000D01*
X125730425Y-94330000D01*
G37*
G36*
X125185130Y-93580441D02*
G01*
X125235812Y-93587667D01*
X125282554Y-93602543D01*
X125329866Y-93628046D01*
X125347288Y-93640769D01*
X125386200Y-93678121D01*
X125415551Y-93718508D01*
X125439531Y-93765310D01*
X125454187Y-93804882D01*
X125467741Y-93858061D01*
X125474794Y-93907505D01*
X125477145Y-93958995D01*
X125476823Y-93977906D01*
X125472000Y-94032603D01*
X125461390Y-94084243D01*
X125444992Y-94132827D01*
X125422807Y-94178353D01*
X125394835Y-94220823D01*
X125361490Y-94257926D01*
X125316554Y-94291511D01*
X125265119Y-94314647D01*
X125215860Y-94326161D01*
X125161827Y-94330000D01*
X125139510Y-94329167D01*
X125090176Y-94320745D01*
X125038488Y-94300015D01*
X124997369Y-94272159D01*
X124960083Y-94235233D01*
X124960357Y-94290707D01*
X124962504Y-94345366D01*
X124968875Y-94394480D01*
X124973497Y-94409558D01*
X124997065Y-94455539D01*
X125032134Y-94490956D01*
X125065131Y-94509116D01*
X125114865Y-94522031D01*
X125164758Y-94525394D01*
X125193432Y-94524192D01*
X125243670Y-94514575D01*
X125290299Y-94491200D01*
X125318021Y-94458288D01*
X125332309Y-94410355D01*
X125452476Y-94392526D01*
X125450564Y-94434503D01*
X125438932Y-94484008D01*
X125413438Y-94530870D01*
X125374807Y-94568381D01*
X125364567Y-94575479D01*
X125319695Y-94599293D01*
X125268564Y-94615779D01*
X125218691Y-94624194D01*
X125164025Y-94626999D01*
X125124029Y-94625539D01*
X125074493Y-94619051D01*
X125023948Y-94605549D01*
X124978889Y-94585478D01*
X124969644Y-94580170D01*
X124928171Y-94550112D01*
X124894616Y-94514186D01*
X124868980Y-94472393D01*
X124857193Y-94442128D01*
X124845271Y-94390822D01*
X124838396Y-94335660D01*
X124835144Y-94280752D01*
X124834298Y-94229616D01*
X124834298Y-93954110D01*
X124949580Y-93954110D01*
X124949637Y-93962890D01*
X124953198Y-94020239D01*
X124962299Y-94070387D01*
X124979484Y-94118885D01*
X125007466Y-94162205D01*
X125014779Y-94170220D01*
X125054578Y-94202539D01*
X125099768Y-94221931D01*
X125150348Y-94228394D01*
X125160952Y-94228134D01*
X125210626Y-94219018D01*
X125254719Y-94196879D01*
X125293230Y-94161716D01*
X125300121Y-94153075D01*
X125325630Y-94106611D01*
X125340746Y-94054896D01*
X125348138Y-94001606D01*
X125350138Y-93949958D01*
X125350082Y-93941687D01*
X125346536Y-93887386D01*
X125337473Y-93839372D01*
X125320361Y-93792199D01*
X125292497Y-93748946D01*
X125288870Y-93744783D01*
X125249925Y-93710427D01*
X125201465Y-93687897D01*
X125152302Y-93681290D01*
X125141925Y-93681560D01*
X125092905Y-93690976D01*
X125048655Y-93713845D01*
X125009175Y-93750167D01*
X125005509Y-93754522D01*
X124977748Y-93799574D01*
X124960987Y-93848476D01*
X124952432Y-93898102D01*
X124949580Y-93954110D01*
X124834298Y-93954110D01*
X124834298Y-93595317D01*
X124948359Y-93595317D01*
X124948359Y-93683244D01*
X124970013Y-93658973D01*
X125011323Y-93624285D01*
X125056980Y-93599507D01*
X125106986Y-93584641D01*
X125161339Y-93579685D01*
X125185130Y-93580441D01*
G37*
G36*
X124388276Y-93580956D02*
G01*
X124443242Y-93589296D01*
X124494257Y-93605420D01*
X124541322Y-93629327D01*
X124584437Y-93661018D01*
X124591379Y-93667258D01*
X124628405Y-93709012D01*
X124657497Y-93758168D01*
X124675679Y-93804785D01*
X124688351Y-93856542D01*
X124695514Y-93913440D01*
X124697277Y-93962658D01*
X124695800Y-94007706D01*
X124689800Y-94060194D01*
X124679185Y-94108437D01*
X124660355Y-94160724D01*
X124634878Y-94206897D01*
X124602755Y-94246957D01*
X124590711Y-94258906D01*
X124551831Y-94290127D01*
X124508829Y-94314410D01*
X124461705Y-94331755D01*
X124410460Y-94342162D01*
X124355093Y-94345631D01*
X124325613Y-94344540D01*
X124274383Y-94337076D01*
X124225510Y-94322541D01*
X124178994Y-94300935D01*
X124154672Y-94286008D01*
X124115642Y-94254693D01*
X124082716Y-94217658D01*
X124055896Y-94174905D01*
X124045992Y-94153691D01*
X124030147Y-94105605D01*
X124020615Y-94057345D01*
X124015127Y-94003310D01*
X124013813Y-93958262D01*
X124140892Y-93958262D01*
X124141131Y-93976047D01*
X124144708Y-94025932D01*
X124154309Y-94077556D01*
X124172436Y-94127881D01*
X124201953Y-94173440D01*
X124213674Y-94186054D01*
X124256684Y-94219142D01*
X124305752Y-94238443D01*
X124355093Y-94244026D01*
X124372216Y-94243410D01*
X124425263Y-94232457D01*
X124472108Y-94207813D01*
X124508966Y-94173928D01*
X124519878Y-94160117D01*
X124543730Y-94117199D01*
X124559949Y-94065427D01*
X124567880Y-94012864D01*
X124570027Y-93962414D01*
X124569788Y-93945016D01*
X124566211Y-93896178D01*
X124556610Y-93845560D01*
X124538483Y-93796097D01*
X124508966Y-93751144D01*
X124497238Y-93738660D01*
X124454114Y-93705917D01*
X124404788Y-93686816D01*
X124355093Y-93681290D01*
X124338230Y-93681909D01*
X124285832Y-93692900D01*
X124239302Y-93717629D01*
X124202441Y-93751632D01*
X124194988Y-93760654D01*
X124167399Y-93807675D01*
X124151050Y-93858294D01*
X124143056Y-93909398D01*
X124140892Y-93958262D01*
X124013813Y-93958262D01*
X124013642Y-93952400D01*
X124014481Y-93920322D01*
X124019610Y-93869815D01*
X124031921Y-93814088D01*
X124050946Y-93763684D01*
X124076686Y-93718604D01*
X124109141Y-93678848D01*
X124121293Y-93666840D01*
X124160325Y-93635464D01*
X124203221Y-93611061D01*
X124249981Y-93593630D01*
X124300605Y-93583172D01*
X124355093Y-93579685D01*
X124388276Y-93580956D01*
G37*
G36*
X123922051Y-94114577D02*
G01*
X123799685Y-94095526D01*
X123786839Y-94144676D01*
X123761295Y-94187302D01*
X123742532Y-94205680D01*
X123698064Y-94230508D01*
X123646069Y-94242191D01*
X123610885Y-94244026D01*
X123561903Y-94240615D01*
X123514459Y-94227518D01*
X123484367Y-94209099D01*
X123453410Y-94170875D01*
X123443090Y-94126545D01*
X123458868Y-94078765D01*
X123479727Y-94059867D01*
X123528016Y-94039670D01*
X123576320Y-94025406D01*
X123606000Y-94017613D01*
X123654080Y-94005025D01*
X123702750Y-93991164D01*
X123753578Y-93974647D01*
X123794556Y-93958018D01*
X123838205Y-93930247D01*
X123872460Y-93891397D01*
X123874179Y-93888653D01*
X123894512Y-93841880D01*
X123901290Y-93790467D01*
X123895017Y-93740564D01*
X123879064Y-93699853D01*
X123850830Y-93659544D01*
X123818247Y-93630732D01*
X123774016Y-93606537D01*
X123739601Y-93594584D01*
X123691333Y-93583890D01*
X123639953Y-93579744D01*
X123632867Y-93579685D01*
X123581209Y-93582071D01*
X123529178Y-93590204D01*
X123482169Y-93604110D01*
X123434985Y-93626816D01*
X123396704Y-93657671D01*
X123386182Y-93670300D01*
X123361395Y-93715680D01*
X123346859Y-93765081D01*
X123343683Y-93782163D01*
X123464584Y-93798527D01*
X123480521Y-93749373D01*
X123512211Y-93712309D01*
X123556443Y-93690045D01*
X123606325Y-93681775D01*
X123623830Y-93681290D01*
X123676661Y-93684638D01*
X123724214Y-93697227D01*
X123745463Y-93709623D01*
X123776737Y-93748854D01*
X123781855Y-93776057D01*
X123766712Y-93819532D01*
X123727122Y-93849345D01*
X123719329Y-93852749D01*
X123671885Y-93867242D01*
X123621198Y-93881457D01*
X123610152Y-93884501D01*
X123556569Y-93899280D01*
X123504633Y-93914683D01*
X123458065Y-93930113D01*
X123427215Y-93942142D01*
X123383380Y-93967662D01*
X123347506Y-94004703D01*
X123345637Y-94007355D01*
X123324425Y-94051987D01*
X123316344Y-94101876D01*
X123316084Y-94113600D01*
X123322050Y-94162995D01*
X123339947Y-94209971D01*
X123352232Y-94230837D01*
X123383694Y-94268401D01*
X123424223Y-94299026D01*
X123456279Y-94315589D01*
X123505096Y-94332693D01*
X123553181Y-94342081D01*
X123604797Y-94345602D01*
X123610152Y-94345631D01*
X123661080Y-94343587D01*
X123714483Y-94336037D01*
X123767587Y-94320597D01*
X123812234Y-94297890D01*
X123826796Y-94287501D01*
X123864448Y-94250222D01*
X123893600Y-94204056D01*
X123912376Y-94155559D01*
X123922051Y-94114577D01*
G37*
G36*
X122876175Y-93579784D02*
G01*
X122926611Y-93582658D01*
X122978436Y-93590520D01*
X123030320Y-93604842D01*
X123059921Y-93616770D01*
X123103215Y-93642004D01*
X123139496Y-93676161D01*
X123158992Y-93704427D01*
X123179818Y-93749266D01*
X123193718Y-93797550D01*
X123072818Y-93814159D01*
X123067475Y-93796298D01*
X123045472Y-93747952D01*
X123011269Y-93710600D01*
X122980858Y-93695144D01*
X122932589Y-93684153D01*
X122882553Y-93681290D01*
X122833585Y-93684594D01*
X122783654Y-93697605D01*
X122741625Y-93723056D01*
X122731563Y-93733752D01*
X122711610Y-93778793D01*
X122706698Y-93828813D01*
X122707187Y-93861053D01*
X122716349Y-93864141D01*
X122765205Y-93877373D01*
X122819110Y-93888226D01*
X122874366Y-93897022D01*
X122927738Y-93904040D01*
X122936783Y-93905172D01*
X122988503Y-93912673D01*
X123037647Y-93922847D01*
X123081929Y-93938796D01*
X123126796Y-93963879D01*
X123162394Y-93995265D01*
X123190543Y-94035687D01*
X123192046Y-94038490D01*
X123209601Y-94085865D01*
X123214967Y-94134605D01*
X123214716Y-94146017D01*
X123205900Y-94199211D01*
X123184491Y-94245966D01*
X123150487Y-94286280D01*
X123114660Y-94312246D01*
X123066070Y-94332590D01*
X123015516Y-94342791D01*
X122965596Y-94345631D01*
X122929783Y-94344105D01*
X122878241Y-94336090D01*
X122829308Y-94321207D01*
X122821321Y-94318018D01*
X122776707Y-94295638D01*
X122735148Y-94268180D01*
X122696928Y-94237676D01*
X122689562Y-94281313D01*
X122672260Y-94330000D01*
X122543055Y-94330000D01*
X122561656Y-94289581D01*
X122574563Y-94241828D01*
X122576395Y-94228356D01*
X122579906Y-94177247D01*
X122581455Y-94126653D01*
X122582188Y-94073576D01*
X122582379Y-94022498D01*
X122582379Y-94004668D01*
X122707187Y-94004668D01*
X122707676Y-94029553D01*
X122712839Y-94081199D01*
X122727215Y-94129720D01*
X122736103Y-94146327D01*
X122768667Y-94186799D01*
X122809036Y-94216427D01*
X122834064Y-94228703D01*
X122884637Y-94243503D01*
X122936042Y-94247934D01*
X122953517Y-94247411D01*
X123002878Y-94238490D01*
X123045707Y-94214473D01*
X123072530Y-94179400D01*
X123083076Y-94130697D01*
X123082475Y-94118547D01*
X123065979Y-94070858D01*
X123057715Y-94059723D01*
X123017131Y-94030069D01*
X123008498Y-94026631D01*
X122960077Y-94013716D01*
X122909175Y-94004912D01*
X122853512Y-93996192D01*
X122804276Y-93986700D01*
X122755878Y-93974908D01*
X122707187Y-93958750D01*
X122707187Y-94004668D01*
X122582379Y-94004668D01*
X122582379Y-93856657D01*
X122582402Y-93846506D01*
X122583547Y-93793979D01*
X122588485Y-93742107D01*
X122601281Y-93700640D01*
X122627075Y-93657355D01*
X122628815Y-93655275D01*
X122667664Y-93623343D01*
X122712804Y-93601912D01*
X122716487Y-93600544D01*
X122765997Y-93587521D01*
X122814760Y-93581444D01*
X122864479Y-93579685D01*
X122876175Y-93579784D01*
G37*
G36*
X122394312Y-94330000D02*
G01*
X122394312Y-93595317D01*
X122283670Y-93595317D01*
X122283670Y-93696922D01*
X122252138Y-93657443D01*
X122213109Y-93624737D01*
X122192567Y-93611926D01*
X122147504Y-93592279D01*
X122098045Y-93581700D01*
X122062630Y-93579685D01*
X122010345Y-93583611D01*
X121961206Y-93596845D01*
X121929762Y-93612903D01*
X121890131Y-93647063D01*
X121862282Y-93691415D01*
X121856489Y-93705959D01*
X121822228Y-93663046D01*
X121784292Y-93629011D01*
X121735389Y-93600526D01*
X121681483Y-93584125D01*
X121631297Y-93579685D01*
X121580097Y-93583471D01*
X121530016Y-93596781D01*
X121483705Y-93622808D01*
X121464235Y-93640258D01*
X121433452Y-93684355D01*
X121415495Y-93734973D01*
X121407286Y-93788661D01*
X121405861Y-93826371D01*
X121405861Y-94330000D01*
X121528959Y-94330000D01*
X121528959Y-93866182D01*
X121530642Y-93815887D01*
X121538122Y-93767314D01*
X121540927Y-93758471D01*
X121568351Y-93717760D01*
X121584646Y-93705471D01*
X121630733Y-93687594D01*
X121658652Y-93685198D01*
X121708458Y-93691317D01*
X121755747Y-93711948D01*
X121786391Y-93736978D01*
X121815315Y-93779768D01*
X121831191Y-93831440D01*
X121836747Y-93881537D01*
X121837194Y-93902330D01*
X121837194Y-94330000D01*
X121961025Y-94330000D01*
X121961025Y-93851528D01*
X121964603Y-93799342D01*
X121978061Y-93750320D01*
X121991311Y-93726964D01*
X122031000Y-93695640D01*
X122081557Y-93685362D01*
X122089985Y-93685198D01*
X122140299Y-93692159D01*
X122186705Y-93713042D01*
X122224868Y-93747114D01*
X122249666Y-93790813D01*
X122250941Y-93794131D01*
X122263750Y-93845212D01*
X122269160Y-93895148D01*
X122270725Y-93948004D01*
X122270725Y-94330000D01*
X122394312Y-94330000D01*
G37*
G36*
X120926449Y-93580371D02*
G01*
X120978262Y-93588573D01*
X121026307Y-93607773D01*
X121047722Y-93621394D01*
X121084887Y-93653760D01*
X121116189Y-93691793D01*
X121116189Y-93595317D01*
X121228785Y-93595317D01*
X121228785Y-94611367D01*
X121105198Y-94611367D01*
X121105198Y-94253551D01*
X121103211Y-94256026D01*
X121066758Y-94291991D01*
X121024598Y-94319497D01*
X121012069Y-94325622D01*
X120965152Y-94340629D01*
X120913467Y-94345631D01*
X120897693Y-94345210D01*
X120846135Y-94337730D01*
X120796151Y-94320900D01*
X120752511Y-94297759D01*
X120729439Y-94281704D01*
X120692418Y-94247664D01*
X120661192Y-94207017D01*
X120635763Y-94159762D01*
X120618132Y-94113295D01*
X120605538Y-94064019D01*
X120597982Y-94011934D01*
X120595463Y-93957041D01*
X120595471Y-93956796D01*
X120721981Y-93956796D01*
X120722211Y-93974875D01*
X120725660Y-94025505D01*
X120734914Y-94077736D01*
X120752389Y-94128413D01*
X120780843Y-94173928D01*
X120788263Y-94182417D01*
X120828139Y-94216644D01*
X120872641Y-94237181D01*
X120921771Y-94244026D01*
X120974691Y-94236032D01*
X121021955Y-94212048D01*
X121060013Y-94176371D01*
X121066904Y-94167626D01*
X121092413Y-94121142D01*
X121107529Y-94070026D01*
X121114921Y-94017737D01*
X121116921Y-93967299D01*
X121116684Y-93949884D01*
X121112111Y-93893065D01*
X121101717Y-93842674D01*
X121082712Y-93792955D01*
X121056105Y-93751632D01*
X121048432Y-93742641D01*
X121012158Y-93709359D01*
X120968500Y-93686156D01*
X120916398Y-93677383D01*
X120864173Y-93685637D01*
X120817317Y-93710399D01*
X120779378Y-93747236D01*
X120772427Y-93756212D01*
X120746700Y-93803404D01*
X120731454Y-93854695D01*
X120723999Y-93906788D01*
X120721981Y-93956796D01*
X120595471Y-93956796D01*
X120596742Y-93918341D01*
X120602429Y-93868584D01*
X120614263Y-93815125D01*
X120631855Y-93764333D01*
X120638988Y-93748194D01*
X120664095Y-93703952D01*
X120698518Y-93662135D01*
X120739810Y-93628046D01*
X120753378Y-93619403D01*
X120801425Y-93596734D01*
X120853813Y-93583511D01*
X120904674Y-93579685D01*
X120926449Y-93580371D01*
G37*
G36*
X120153356Y-93579784D02*
G01*
X120203792Y-93582658D01*
X120255617Y-93590520D01*
X120307501Y-93604842D01*
X120337101Y-93616770D01*
X120380395Y-93642004D01*
X120416677Y-93676161D01*
X120436173Y-93704427D01*
X120456999Y-93749266D01*
X120470899Y-93797550D01*
X120349999Y-93814159D01*
X120344656Y-93796298D01*
X120322653Y-93747952D01*
X120288450Y-93710600D01*
X120258039Y-93695144D01*
X120209770Y-93684153D01*
X120159734Y-93681290D01*
X120110766Y-93684594D01*
X120060834Y-93697605D01*
X120018806Y-93723056D01*
X120008744Y-93733752D01*
X119988790Y-93778793D01*
X119983879Y-93828813D01*
X119984367Y-93861053D01*
X119993529Y-93864141D01*
X120042385Y-93877373D01*
X120096290Y-93888226D01*
X120151547Y-93897022D01*
X120204919Y-93904040D01*
X120213963Y-93905172D01*
X120265684Y-93912673D01*
X120314828Y-93922847D01*
X120359110Y-93938796D01*
X120403977Y-93963879D01*
X120439575Y-93995265D01*
X120467724Y-94035687D01*
X120469227Y-94038490D01*
X120486782Y-94085865D01*
X120492148Y-94134605D01*
X120491896Y-94146017D01*
X120483081Y-94199211D01*
X120461671Y-94245966D01*
X120427668Y-94286280D01*
X120391841Y-94312246D01*
X120343251Y-94332590D01*
X120292697Y-94342791D01*
X120242776Y-94345631D01*
X120206964Y-94344105D01*
X120155421Y-94336090D01*
X120106489Y-94321207D01*
X120098501Y-94318018D01*
X120053888Y-94295638D01*
X120012328Y-94268180D01*
X119974109Y-94237676D01*
X119966743Y-94281313D01*
X119949441Y-94330000D01*
X119820236Y-94330000D01*
X119838837Y-94289581D01*
X119851743Y-94241828D01*
X119853575Y-94228356D01*
X119857086Y-94177247D01*
X119858636Y-94126653D01*
X119859368Y-94073576D01*
X119859559Y-94022498D01*
X119859559Y-94004668D01*
X119984367Y-94004668D01*
X119984856Y-94029553D01*
X119990020Y-94081199D01*
X120004395Y-94129720D01*
X120013284Y-94146327D01*
X120045848Y-94186799D01*
X120086217Y-94216427D01*
X120111244Y-94228703D01*
X120161817Y-94243503D01*
X120213223Y-94247934D01*
X120230698Y-94247411D01*
X120280058Y-94238490D01*
X120322888Y-94214473D01*
X120349711Y-94179400D01*
X120360257Y-94130697D01*
X120359656Y-94118547D01*
X120343160Y-94070858D01*
X120334895Y-94059723D01*
X120294312Y-94030069D01*
X120285679Y-94026631D01*
X120237258Y-94013716D01*
X120186356Y-94004912D01*
X120130692Y-93996192D01*
X120081457Y-93986700D01*
X120033058Y-93974908D01*
X119984367Y-93958750D01*
X119984367Y-94004668D01*
X119859559Y-94004668D01*
X119859559Y-93856657D01*
X119859583Y-93846506D01*
X119860728Y-93793979D01*
X119865665Y-93742107D01*
X119878461Y-93700640D01*
X119904256Y-93657355D01*
X119905996Y-93655275D01*
X119944845Y-93623343D01*
X119989985Y-93601912D01*
X119993667Y-93600544D01*
X120043178Y-93587521D01*
X120091941Y-93581444D01*
X120141660Y-93579685D01*
X120153356Y-93579784D01*
G37*
G36*
X119670760Y-93454633D02*
G01*
X119670760Y-93313949D01*
X119547173Y-93313949D01*
X119547173Y-93454633D01*
X119670760Y-93454633D01*
G37*
G36*
X119670760Y-94330000D02*
G01*
X119670760Y-93595317D01*
X119547173Y-93595317D01*
X119547173Y-94330000D01*
X119670760Y-94330000D01*
G37*
G36*
X119097976Y-93580956D02*
G01*
X119152942Y-93589296D01*
X119203957Y-93605420D01*
X119251022Y-93629327D01*
X119294137Y-93661018D01*
X119301079Y-93667258D01*
X119338105Y-93709012D01*
X119367197Y-93758168D01*
X119385379Y-93804785D01*
X119398051Y-93856542D01*
X119405214Y-93913440D01*
X119406977Y-93962658D01*
X119405500Y-94007706D01*
X119399500Y-94060194D01*
X119388885Y-94108437D01*
X119370055Y-94160724D01*
X119344578Y-94206897D01*
X119312455Y-94246957D01*
X119300411Y-94258906D01*
X119261531Y-94290127D01*
X119218529Y-94314410D01*
X119171405Y-94331755D01*
X119120160Y-94342162D01*
X119064793Y-94345631D01*
X119035313Y-94344540D01*
X118984083Y-94337076D01*
X118935210Y-94322541D01*
X118888694Y-94300935D01*
X118864372Y-94286008D01*
X118825342Y-94254693D01*
X118792416Y-94217658D01*
X118765596Y-94174905D01*
X118755692Y-94153691D01*
X118739847Y-94105605D01*
X118730315Y-94057345D01*
X118724827Y-94003310D01*
X118723513Y-93958262D01*
X118850592Y-93958262D01*
X118850831Y-93976047D01*
X118854408Y-94025932D01*
X118864009Y-94077556D01*
X118882136Y-94127881D01*
X118911653Y-94173440D01*
X118923374Y-94186054D01*
X118966384Y-94219142D01*
X119015452Y-94238443D01*
X119064793Y-94244026D01*
X119081916Y-94243410D01*
X119134963Y-94232457D01*
X119181808Y-94207813D01*
X119218666Y-94173928D01*
X119229578Y-94160117D01*
X119253430Y-94117199D01*
X119269649Y-94065427D01*
X119277580Y-94012864D01*
X119279727Y-93962414D01*
X119279488Y-93945016D01*
X119275910Y-93896178D01*
X119266310Y-93845560D01*
X119248183Y-93796097D01*
X119218666Y-93751144D01*
X119206938Y-93738660D01*
X119163814Y-93705917D01*
X119114488Y-93686816D01*
X119064793Y-93681290D01*
X119047930Y-93681909D01*
X118995532Y-93692900D01*
X118949002Y-93717629D01*
X118912141Y-93751632D01*
X118904688Y-93760654D01*
X118877099Y-93807675D01*
X118860750Y-93858294D01*
X118852756Y-93909398D01*
X118850592Y-93958262D01*
X118723513Y-93958262D01*
X118723342Y-93952400D01*
X118724181Y-93920322D01*
X118729310Y-93869815D01*
X118741621Y-93814088D01*
X118760646Y-93763684D01*
X118786386Y-93718604D01*
X118818840Y-93678848D01*
X118830993Y-93666840D01*
X118870025Y-93635464D01*
X118912921Y-93611061D01*
X118959681Y-93593630D01*
X119010305Y-93583172D01*
X119064793Y-93579685D01*
X119097976Y-93580956D01*
G37*
G36*
X118674981Y-94345631D02*
G01*
X118383111Y-93298318D01*
X118284193Y-93298318D01*
X118575330Y-94345631D01*
X118674981Y-94345631D01*
G37*
G36*
X118174772Y-94330000D02*
G01*
X118174772Y-93313949D01*
X117446684Y-93313949D01*
X117446684Y-93431186D01*
X118041660Y-93431186D01*
X118041660Y-93751632D01*
X117484542Y-93751632D01*
X117484542Y-93868869D01*
X118041660Y-93868869D01*
X118041660Y-94212763D01*
X117423237Y-94212763D01*
X117423237Y-94330000D01*
X118174772Y-94330000D01*
G37*
G36*
X116784298Y-94064263D02*
G01*
X116662665Y-94080139D01*
X116674395Y-94132053D01*
X116692063Y-94178801D01*
X116719526Y-94225901D01*
X116754742Y-94266255D01*
X116764758Y-94275289D01*
X116808142Y-94306064D01*
X116856227Y-94328046D01*
X116909014Y-94341235D01*
X116959060Y-94345562D01*
X116966503Y-94345631D01*
X117020587Y-94342179D01*
X117070550Y-94331824D01*
X117116392Y-94314564D01*
X117164664Y-94285703D01*
X117201575Y-94253486D01*
X117207326Y-94247445D01*
X117238204Y-94207537D01*
X117262693Y-94161636D01*
X117280794Y-94109741D01*
X117290997Y-94061917D01*
X117296765Y-94009931D01*
X117298185Y-93965345D01*
X117296315Y-93914839D01*
X117289598Y-93860609D01*
X117277996Y-93810104D01*
X117261510Y-93763324D01*
X117259106Y-93757739D01*
X117233779Y-93711128D01*
X117202039Y-93671589D01*
X117163884Y-93639120D01*
X117139915Y-93624138D01*
X117093751Y-93602650D01*
X117045385Y-93588194D01*
X116994816Y-93580771D01*
X116965770Y-93579685D01*
X116915811Y-93582572D01*
X116863811Y-93592941D01*
X116817244Y-93610851D01*
X116771353Y-93640013D01*
X116733071Y-93677947D01*
X116703406Y-93723879D01*
X116684272Y-93771423D01*
X116674388Y-93811228D01*
X116794556Y-93829790D01*
X116809595Y-93783269D01*
X116835405Y-93739527D01*
X116855616Y-93718660D01*
X116900400Y-93691837D01*
X116949460Y-93681619D01*
X116960885Y-93681290D01*
X117010722Y-93686623D01*
X117059571Y-93705056D01*
X117101550Y-93736654D01*
X117112804Y-93748702D01*
X117141022Y-93792822D01*
X117158352Y-93842453D01*
X117167530Y-93893919D01*
X117170950Y-93944005D01*
X117171178Y-93961926D01*
X117169195Y-94014588D01*
X117161867Y-94068842D01*
X117146880Y-94121373D01*
X117121590Y-94168392D01*
X117114758Y-94177103D01*
X117076156Y-94212395D01*
X117030876Y-94234615D01*
X116978917Y-94243765D01*
X116967724Y-94244026D01*
X116916536Y-94237844D01*
X116868757Y-94217193D01*
X116846335Y-94200062D01*
X116814713Y-94160243D01*
X116794537Y-94112035D01*
X116784298Y-94064263D01*
G37*
G36*
X116560815Y-94330000D02*
G01*
X116560815Y-93313949D01*
X116437228Y-93313949D01*
X116437228Y-93679092D01*
X116397228Y-93640359D01*
X116352879Y-93611138D01*
X116304182Y-93591432D01*
X116251138Y-93581239D01*
X116218875Y-93579685D01*
X116165638Y-93583495D01*
X116117422Y-93594924D01*
X116077947Y-93611926D01*
X116034971Y-93641993D01*
X116003281Y-93680204D01*
X115992462Y-93700586D01*
X115976686Y-93750262D01*
X115969101Y-93802627D01*
X115966674Y-93851697D01*
X115966573Y-93864961D01*
X115966573Y-94330000D01*
X116090404Y-94330000D01*
X116090404Y-93863984D01*
X116094339Y-93810504D01*
X116107759Y-93763190D01*
X116130704Y-93727941D01*
X116172157Y-93698722D01*
X116222119Y-93686242D01*
X116244277Y-93685198D01*
X116294348Y-93691531D01*
X116341521Y-93710529D01*
X116347591Y-93714019D01*
X116386865Y-93745371D01*
X116415388Y-93788869D01*
X116416712Y-93791933D01*
X116430737Y-93842041D01*
X116436247Y-93891448D01*
X116437228Y-93927487D01*
X116437228Y-94330000D01*
X116560815Y-94330000D01*
G37*
G36*
X115519330Y-93580956D02*
G01*
X115574295Y-93589296D01*
X115625311Y-93605420D01*
X115672376Y-93629327D01*
X115715491Y-93661018D01*
X115722433Y-93667258D01*
X115759459Y-93709012D01*
X115788550Y-93758168D01*
X115806733Y-93804785D01*
X115819405Y-93856542D01*
X115826568Y-93913440D01*
X115828331Y-93962658D01*
X115826854Y-94007706D01*
X115820854Y-94060194D01*
X115810239Y-94108437D01*
X115791408Y-94160724D01*
X115765932Y-94206897D01*
X115733809Y-94246957D01*
X115721765Y-94258906D01*
X115682884Y-94290127D01*
X115639882Y-94314410D01*
X115592759Y-94331755D01*
X115541514Y-94342162D01*
X115486147Y-94345631D01*
X115456667Y-94344540D01*
X115405437Y-94337076D01*
X115356564Y-94322541D01*
X115310048Y-94300935D01*
X115285726Y-94286008D01*
X115246695Y-94254693D01*
X115213770Y-94217658D01*
X115186949Y-94174905D01*
X115177046Y-94153691D01*
X115161201Y-94105605D01*
X115151669Y-94057345D01*
X115146181Y-94003310D01*
X115144866Y-93958262D01*
X115271946Y-93958262D01*
X115272184Y-93976047D01*
X115275762Y-94025932D01*
X115285363Y-94077556D01*
X115303490Y-94127881D01*
X115333007Y-94173440D01*
X115344728Y-94186054D01*
X115387738Y-94219142D01*
X115436806Y-94238443D01*
X115486147Y-94244026D01*
X115503270Y-94243410D01*
X115556317Y-94232457D01*
X115603162Y-94207813D01*
X115640020Y-94173928D01*
X115650932Y-94160117D01*
X115674784Y-94117199D01*
X115691003Y-94065427D01*
X115698934Y-94012864D01*
X115701081Y-93962414D01*
X115700842Y-93945016D01*
X115697264Y-93896178D01*
X115687664Y-93845560D01*
X115669536Y-93796097D01*
X115640020Y-93751144D01*
X115628292Y-93738660D01*
X115585168Y-93705917D01*
X115535842Y-93686816D01*
X115486147Y-93681290D01*
X115469283Y-93681909D01*
X115416886Y-93692900D01*
X115370355Y-93717629D01*
X115333495Y-93751632D01*
X115326042Y-93760654D01*
X115298453Y-93807675D01*
X115282104Y-93858294D01*
X115274110Y-93909398D01*
X115271946Y-93958262D01*
X115144866Y-93958262D01*
X115144695Y-93952400D01*
X115145535Y-93920322D01*
X115150664Y-93869815D01*
X115162974Y-93814088D01*
X115182000Y-93763684D01*
X115207740Y-93718604D01*
X115240194Y-93678848D01*
X115252346Y-93666840D01*
X115291378Y-93635464D01*
X115334275Y-93611061D01*
X115381035Y-93593630D01*
X115431659Y-93583172D01*
X115486147Y-93579685D01*
X115519330Y-93580956D01*
G37*
G36*
X114269329Y-93970474D02*
G01*
X114135972Y-94004180D01*
X114150734Y-94054302D01*
X114168764Y-94100560D01*
X114194713Y-94150969D01*
X114225367Y-94195815D01*
X114260727Y-94235096D01*
X114286914Y-94258192D01*
X114329381Y-94287908D01*
X114375265Y-94311475D01*
X114424567Y-94328895D01*
X114477286Y-94340166D01*
X114533423Y-94345289D01*
X114552895Y-94345631D01*
X114602320Y-94344003D01*
X114657709Y-94337752D01*
X114708823Y-94326813D01*
X114755660Y-94311185D01*
X114804899Y-94287027D01*
X114817898Y-94278953D01*
X114860132Y-94246929D01*
X114897713Y-94209202D01*
X114930643Y-94165772D01*
X114958922Y-94116638D01*
X114972993Y-94086001D01*
X114991088Y-94037904D01*
X115005439Y-93988502D01*
X115016046Y-93937795D01*
X115022910Y-93885783D01*
X115026030Y-93832465D01*
X115026238Y-93814403D01*
X115024125Y-93756477D01*
X115017788Y-93701402D01*
X115007227Y-93649178D01*
X114992440Y-93599805D01*
X114973430Y-93553282D01*
X114966154Y-93538408D01*
X114937436Y-93489615D01*
X114903857Y-93446245D01*
X114865415Y-93408298D01*
X114822112Y-93375773D01*
X114795184Y-93359623D01*
X114745512Y-93335735D01*
X114693737Y-93317715D01*
X114639858Y-93305562D01*
X114583876Y-93299276D01*
X114550941Y-93298318D01*
X114495938Y-93301057D01*
X114444318Y-93309274D01*
X114396081Y-93322970D01*
X114344080Y-93345872D01*
X114296684Y-93376231D01*
X114254583Y-93413357D01*
X114218465Y-93456560D01*
X114192270Y-93498429D01*
X114170472Y-93544763D01*
X114153069Y-93595561D01*
X114284472Y-93626580D01*
X114301272Y-93580348D01*
X114324192Y-93534667D01*
X114354722Y-93492399D01*
X114386077Y-93462937D01*
X114431090Y-93435889D01*
X114482782Y-93418859D01*
X114535015Y-93412097D01*
X114553628Y-93411646D01*
X114602573Y-93414334D01*
X114654074Y-93423990D01*
X114700842Y-93440667D01*
X114747801Y-93467822D01*
X114787976Y-93502454D01*
X114820847Y-93543153D01*
X114846416Y-93589918D01*
X114857466Y-93618520D01*
X114871250Y-93666163D01*
X114881096Y-93714569D01*
X114887004Y-93763738D01*
X114888973Y-93813670D01*
X114887185Y-93868833D01*
X114881820Y-93920840D01*
X114872880Y-93969692D01*
X114858282Y-94021658D01*
X114851604Y-94040083D01*
X114830217Y-94085283D01*
X114799990Y-94128871D01*
X114763233Y-94164770D01*
X114735100Y-94184431D01*
X114689563Y-94207572D01*
X114641978Y-94223139D01*
X114592345Y-94231134D01*
X114563886Y-94232302D01*
X114510091Y-94228181D01*
X114460571Y-94215816D01*
X114415325Y-94195208D01*
X114374353Y-94166357D01*
X114338663Y-94129385D01*
X114309263Y-94084413D01*
X114288696Y-94038502D01*
X114272945Y-93986466D01*
X114269329Y-93970474D01*
G37*
G36*
X113696552Y-93579784D02*
G01*
X113746988Y-93582658D01*
X113798813Y-93590520D01*
X113850697Y-93604842D01*
X113880298Y-93616770D01*
X113923592Y-93642004D01*
X113959873Y-93676161D01*
X113979369Y-93704427D01*
X114000195Y-93749266D01*
X114014095Y-93797550D01*
X113893195Y-93814159D01*
X113887852Y-93796298D01*
X113865849Y-93747952D01*
X113831646Y-93710600D01*
X113801235Y-93695144D01*
X113752966Y-93684153D01*
X113702930Y-93681290D01*
X113653962Y-93684594D01*
X113604031Y-93697605D01*
X113562002Y-93723056D01*
X113551940Y-93733752D01*
X113531987Y-93778793D01*
X113527075Y-93828813D01*
X113527563Y-93861053D01*
X113536725Y-93864141D01*
X113585581Y-93877373D01*
X113639487Y-93888226D01*
X113694743Y-93897022D01*
X113748115Y-93904040D01*
X113757159Y-93905172D01*
X113808880Y-93912673D01*
X113858024Y-93922847D01*
X113902306Y-93938796D01*
X113947173Y-93963879D01*
X113982771Y-93995265D01*
X114010920Y-94035687D01*
X114012423Y-94038490D01*
X114029978Y-94085865D01*
X114035344Y-94134605D01*
X114035092Y-94146017D01*
X114026277Y-94199211D01*
X114004867Y-94245966D01*
X113970864Y-94286280D01*
X113935037Y-94312246D01*
X113886447Y-94332590D01*
X113835893Y-94342791D01*
X113785972Y-94345631D01*
X113750160Y-94344105D01*
X113698617Y-94336090D01*
X113649685Y-94321207D01*
X113641697Y-94318018D01*
X113597084Y-94295638D01*
X113555524Y-94268180D01*
X113517305Y-94237676D01*
X113509939Y-94281313D01*
X113492637Y-94330000D01*
X113363432Y-94330000D01*
X113382033Y-94289581D01*
X113394940Y-94241828D01*
X113396771Y-94228356D01*
X113400282Y-94177247D01*
X113401832Y-94126653D01*
X113402565Y-94073576D01*
X113402755Y-94022498D01*
X113402755Y-94004668D01*
X113527563Y-94004668D01*
X113528052Y-94029553D01*
X113533216Y-94081199D01*
X113547591Y-94129720D01*
X113556480Y-94146327D01*
X113589044Y-94186799D01*
X113629413Y-94216427D01*
X113654440Y-94228703D01*
X113705014Y-94243503D01*
X113756419Y-94247934D01*
X113773894Y-94247411D01*
X113823254Y-94238490D01*
X113866084Y-94214473D01*
X113892907Y-94179400D01*
X113903453Y-94130697D01*
X113902852Y-94118547D01*
X113886356Y-94070858D01*
X113878092Y-94059723D01*
X113837508Y-94030069D01*
X113828875Y-94026631D01*
X113780454Y-94013716D01*
X113729552Y-94004912D01*
X113673889Y-93996192D01*
X113624653Y-93986700D01*
X113576255Y-93974908D01*
X113527563Y-93958750D01*
X113527563Y-94004668D01*
X113402755Y-94004668D01*
X113402755Y-93856657D01*
X113402779Y-93846506D01*
X113403924Y-93793979D01*
X113408861Y-93742107D01*
X113421657Y-93700640D01*
X113447452Y-93657355D01*
X113449192Y-93655275D01*
X113488041Y-93623343D01*
X113533181Y-93601912D01*
X113536864Y-93600544D01*
X113586374Y-93587521D01*
X113635137Y-93581444D01*
X113684856Y-93579685D01*
X113696552Y-93579784D01*
G37*
G36*
X113216154Y-94330000D02*
G01*
X113216154Y-93595317D01*
X113104779Y-93595317D01*
X113104779Y-93707913D01*
X113078862Y-93664135D01*
X113047095Y-93622843D01*
X113026377Y-93604598D01*
X112980868Y-93583797D01*
X112946754Y-93579685D01*
X112895629Y-93586296D01*
X112847864Y-93604134D01*
X112819748Y-93619741D01*
X112862246Y-93735268D01*
X112907675Y-93715301D01*
X112953104Y-93708646D01*
X113002742Y-93719270D01*
X113025889Y-93733314D01*
X113058938Y-93771286D01*
X113071806Y-93801214D01*
X113084457Y-93852608D01*
X113090925Y-93902797D01*
X113092567Y-93946050D01*
X113092567Y-94330000D01*
X113216154Y-94330000D01*
G37*
M02*
