%TF.GenerationSoftware,KiCad,Pcbnew,8.0.5*%
%TF.CreationDate,2025-02-26T14:21:12-03:00*%
%TF.ProjectId,EchoCar_PCB,4563686f-4361-4725-9f50-43422e6b6963,rev?*%
%TF.SameCoordinates,Original*%
%TF.FileFunction,Copper,L1,Top*%
%TF.FilePolarity,Positive*%
%FSLAX46Y46*%
G04 Gerber Fmt 4.6, Leading zero omitted, Abs format (unit mm)*
G04 Created by KiCad (PCBNEW 8.0.5) date 2025-02-26 14:21:12*
%MOMM*%
%LPD*%
G01*
G04 APERTURE LIST*
G04 Aperture macros list*
%AMRoundRect*
0 Rectangle with rounded corners*
0 $1 Rounding radius*
0 $2 $3 $4 $5 $6 $7 $8 $9 X,Y pos of 4 corners*
0 Add a 4 corners polygon primitive as box body*
4,1,4,$2,$3,$4,$5,$6,$7,$8,$9,$2,$3,0*
0 Add four circle primitives for the rounded corners*
1,1,$1+$1,$2,$3*
1,1,$1+$1,$4,$5*
1,1,$1+$1,$6,$7*
1,1,$1+$1,$8,$9*
0 Add four rect primitives between the rounded corners*
20,1,$1+$1,$2,$3,$4,$5,0*
20,1,$1+$1,$4,$5,$6,$7,0*
20,1,$1+$1,$6,$7,$8,$9,0*
20,1,$1+$1,$8,$9,$2,$3,0*%
G04 Aperture macros list end*
%TA.AperFunction,ComponentPad*%
%ADD10R,1.700000X1.700000*%
%TD*%
%TA.AperFunction,ComponentPad*%
%ADD11O,1.700000X1.700000*%
%TD*%
%TA.AperFunction,SMDPad,CuDef*%
%ADD12RoundRect,0.140000X-0.170000X0.140000X-0.170000X-0.140000X0.170000X-0.140000X0.170000X0.140000X0*%
%TD*%
%TA.AperFunction,SMDPad,CuDef*%
%ADD13RoundRect,0.250000X-0.250000X-0.475000X0.250000X-0.475000X0.250000X0.475000X-0.250000X0.475000X0*%
%TD*%
%TA.AperFunction,SMDPad,CuDef*%
%ADD14RoundRect,0.140000X-0.140000X-0.170000X0.140000X-0.170000X0.140000X0.170000X-0.140000X0.170000X0*%
%TD*%
%TA.AperFunction,SMDPad,CuDef*%
%ADD15RoundRect,0.140000X0.170000X-0.140000X0.170000X0.140000X-0.170000X0.140000X-0.170000X-0.140000X0*%
%TD*%
%TA.AperFunction,SMDPad,CuDef*%
%ADD16RoundRect,0.250000X0.550000X-1.250000X0.550000X1.250000X-0.550000X1.250000X-0.550000X-1.250000X0*%
%TD*%
%TA.AperFunction,SMDPad,CuDef*%
%ADD17RoundRect,0.075000X-0.662500X-0.075000X0.662500X-0.075000X0.662500X0.075000X-0.662500X0.075000X0*%
%TD*%
%TA.AperFunction,SMDPad,CuDef*%
%ADD18RoundRect,0.075000X-0.075000X-0.662500X0.075000X-0.662500X0.075000X0.662500X-0.075000X0.662500X0*%
%TD*%
%TA.AperFunction,SMDPad,CuDef*%
%ADD19RoundRect,0.218750X0.256250X-0.218750X0.256250X0.218750X-0.256250X0.218750X-0.256250X-0.218750X0*%
%TD*%
%TA.AperFunction,SMDPad,CuDef*%
%ADD20O,2.038000X0.574000*%
%TD*%
%TA.AperFunction,ComponentPad*%
%ADD21C,2.000000*%
%TD*%
%TA.AperFunction,ComponentPad*%
%ADD22C,1.700000*%
%TD*%
%TA.AperFunction,SMDPad,CuDef*%
%ADD23RoundRect,0.135000X-0.185000X0.135000X-0.185000X-0.135000X0.185000X-0.135000X0.185000X0.135000X0*%
%TD*%
%TA.AperFunction,SMDPad,CuDef*%
%ADD24RoundRect,0.375000X-0.375000X0.625000X-0.375000X-0.625000X0.375000X-0.625000X0.375000X0.625000X0*%
%TD*%
%TA.AperFunction,SMDPad,CuDef*%
%ADD25RoundRect,0.500000X-1.400000X0.500000X-1.400000X-0.500000X1.400000X-0.500000X1.400000X0.500000X0*%
%TD*%
%TA.AperFunction,SMDPad,CuDef*%
%ADD26R,1.200000X1.400000*%
%TD*%
%TA.AperFunction,SMDPad,CuDef*%
%ADD27RoundRect,0.250000X0.475000X-0.250000X0.475000X0.250000X-0.475000X0.250000X-0.475000X-0.250000X0*%
%TD*%
%TA.AperFunction,SMDPad,CuDef*%
%ADD28RoundRect,0.135000X-0.135000X-0.185000X0.135000X-0.185000X0.135000X0.185000X-0.135000X0.185000X0*%
%TD*%
%TA.AperFunction,SMDPad,CuDef*%
%ADD29RoundRect,0.140000X0.140000X0.170000X-0.140000X0.170000X-0.140000X-0.170000X0.140000X-0.170000X0*%
%TD*%
%TA.AperFunction,SMDPad,CuDef*%
%ADD30RoundRect,0.250000X0.600000X-0.400000X0.600000X0.400000X-0.600000X0.400000X-0.600000X-0.400000X0*%
%TD*%
%TA.AperFunction,ViaPad*%
%ADD31C,0.600000*%
%TD*%
%TA.AperFunction,ViaPad*%
%ADD32C,0.700000*%
%TD*%
%TA.AperFunction,Conductor*%
%ADD33C,0.300000*%
%TD*%
%TA.AperFunction,Conductor*%
%ADD34C,0.500000*%
%TD*%
G04 APERTURE END LIST*
D10*
%TO.P,J3,1,Pin_1*%
%TO.N,GND*%
X150000000Y-78540000D03*
D11*
%TO.P,J3,2,Pin_2*%
%TO.N,+3.3V*%
X150000000Y-76000000D03*
%TO.P,J3,3,Pin_3*%
%TO.N,UART_RX*%
X150000000Y-73460000D03*
%TD*%
D12*
%TO.P,C7,1*%
%TO.N,/RST*%
X135750000Y-77270000D03*
%TO.P,C7,2*%
%TO.N,GND*%
X135750000Y-78230000D03*
%TD*%
D10*
%TO.P,J2,1,Pin_1*%
%TO.N,GND*%
X135000000Y-85000000D03*
D11*
%TO.P,J2,2,Pin_2*%
%TO.N,+3.3V*%
X137540000Y-85000000D03*
%TO.P,J2,3,Pin_3*%
%TO.N,DISP_SCK*%
X140080000Y-85000000D03*
%TO.P,J2,4,Pin_4*%
%TO.N,DISP_SDA*%
X142620000Y-85000000D03*
%TO.P,J2,5,Pin_5*%
%TO.N,DISP_RES*%
X145160000Y-85000000D03*
%TO.P,J2,6,Pin_6*%
%TO.N,DISP_DC*%
X147700000Y-85000000D03*
%TO.P,J2,7,Pin_7*%
%TO.N,DISP_CS*%
X150240000Y-85000000D03*
%TD*%
D13*
%TO.P,C10,1*%
%TO.N,VCC*%
X117500000Y-56000000D03*
%TO.P,C10,2*%
%TO.N,GND*%
X119400000Y-56000000D03*
%TD*%
D10*
%TO.P,H4,1,1*%
%TO.N,Net-(U3-OUTB2)*%
X114500000Y-70500000D03*
%TD*%
D14*
%TO.P,C5,1*%
%TO.N,+3.3V*%
X145790000Y-67250000D03*
%TO.P,C5,2*%
%TO.N,GND*%
X146750000Y-67250000D03*
%TD*%
D15*
%TO.P,C3,1*%
%TO.N,+3.3V*%
X135000000Y-67980000D03*
%TO.P,C3,2*%
%TO.N,GND*%
X135000000Y-67020000D03*
%TD*%
D16*
%TO.P,C12,1*%
%TO.N,Net-(D2-K)*%
X126500000Y-92450000D03*
%TO.P,C12,2*%
%TO.N,GND*%
X126500000Y-88050000D03*
%TD*%
D17*
%TO.P,U1,1,VBAT*%
%TO.N,+3.3V*%
X136837500Y-68250000D03*
%TO.P,U1,2,PC13*%
%TO.N,unconnected-(U1-PC13-Pad2)*%
X136837500Y-68750000D03*
%TO.P,U1,3,PC14*%
%TO.N,unconnected-(U1-PC14-Pad3)*%
X136837500Y-69250000D03*
%TO.P,U1,4,PC15*%
%TO.N,unconnected-(U1-PC15-Pad4)*%
X136837500Y-69750000D03*
%TO.P,U1,5,PD0*%
%TO.N,OSCIN*%
X136837500Y-70250000D03*
%TO.P,U1,6,PD1*%
%TO.N,OSCOUT*%
X136837500Y-70750000D03*
%TO.P,U1,7,NRST*%
%TO.N,/RST*%
X136837500Y-71250000D03*
%TO.P,U1,8,VSSA*%
%TO.N,GND*%
X136837500Y-71750000D03*
%TO.P,U1,9,VDDA*%
%TO.N,+3.3V*%
X136837500Y-72250000D03*
%TO.P,U1,10,PA0*%
%TO.N,MOTOR_IN_1*%
X136837500Y-72750000D03*
%TO.P,U1,11,PA1*%
%TO.N,MOTOR_IN_2*%
X136837500Y-73250000D03*
%TO.P,U1,12,PA2*%
%TO.N,MOTOR_IN_3*%
X136837500Y-73750000D03*
D18*
%TO.P,U1,13,PA3*%
%TO.N,MOTOR_IN_4*%
X138250000Y-75162500D03*
%TO.P,U1,14,PA4*%
%TO.N,DISP_CS*%
X138750000Y-75162500D03*
%TO.P,U1,15,PA5*%
%TO.N,DISP_SCK*%
X139250000Y-75162500D03*
%TO.P,U1,16,PA6*%
%TO.N,unconnected-(U1-PA6-Pad16)*%
X139750000Y-75162500D03*
%TO.P,U1,17,PA7*%
%TO.N,DISP_SDA*%
X140250000Y-75162500D03*
%TO.P,U1,18,PB0*%
%TO.N,DISP_DC*%
X140750000Y-75162500D03*
%TO.P,U1,19,PB1*%
%TO.N,DISP_RES*%
X141250000Y-75162500D03*
%TO.P,U1,20,PB2*%
%TO.N,unconnected-(U1-PB2-Pad20)*%
X141750000Y-75162500D03*
%TO.P,U1,21,PB10*%
%TO.N,unconnected-(U1-PB10-Pad21)*%
X142250000Y-75162500D03*
%TO.P,U1,22,PB11*%
%TO.N,unconnected-(U1-PB11-Pad22)*%
X142750000Y-75162500D03*
%TO.P,U1,23,VSS*%
%TO.N,GND*%
X143250000Y-75162500D03*
%TO.P,U1,24,VDD*%
%TO.N,+3.3V*%
X143750000Y-75162500D03*
D17*
%TO.P,U1,25,PB12*%
%TO.N,unconnected-(U1-PB12-Pad25)*%
X145162500Y-73750000D03*
%TO.P,U1,26,PB13*%
%TO.N,unconnected-(U1-PB13-Pad26)*%
X145162500Y-73250000D03*
%TO.P,U1,27,PB14*%
%TO.N,unconnected-(U1-PB14-Pad27)*%
X145162500Y-72750000D03*
%TO.P,U1,28,PB15*%
%TO.N,unconnected-(U1-PB15-Pad28)*%
X145162500Y-72250000D03*
%TO.P,U1,29,PA8*%
%TO.N,unconnected-(U1-PA8-Pad29)*%
X145162500Y-71750000D03*
%TO.P,U1,30,PA9*%
%TO.N,unconnected-(U1-PA9-Pad30)*%
X145162500Y-71250000D03*
%TO.P,U1,31,PA10*%
%TO.N,UART_RX*%
X145162500Y-70750000D03*
%TO.P,U1,32,PA11*%
%TO.N,unconnected-(U1-PA11-Pad32)*%
X145162500Y-70250000D03*
%TO.P,U1,33,PA12*%
%TO.N,unconnected-(U1-PA12-Pad33)*%
X145162500Y-69750000D03*
%TO.P,U1,34,PA13*%
%TO.N,SWIO*%
X145162500Y-69250000D03*
%TO.P,U1,35,VSS*%
%TO.N,GND*%
X145162500Y-68750000D03*
%TO.P,U1,36,VDD*%
%TO.N,+3.3V*%
X145162500Y-68250000D03*
D18*
%TO.P,U1,37,PA14*%
%TO.N,SWCLK*%
X143750000Y-66837500D03*
%TO.P,U1,38,PA15*%
%TO.N,unconnected-(U1-PA15-Pad38)*%
X143250000Y-66837500D03*
%TO.P,U1,39,PB3*%
%TO.N,unconnected-(U1-PB3-Pad39)*%
X142750000Y-66837500D03*
%TO.P,U1,40,PB4*%
%TO.N,unconnected-(U1-PB4-Pad40)*%
X142250000Y-66837500D03*
%TO.P,U1,41,PB5*%
%TO.N,unconnected-(U1-PB5-Pad41)*%
X141750000Y-66837500D03*
%TO.P,U1,42,PB6*%
%TO.N,unconnected-(U1-PB6-Pad42)*%
X141250000Y-66837500D03*
%TO.P,U1,43,PB7*%
%TO.N,unconnected-(U1-PB7-Pad43)*%
X140750000Y-66837500D03*
%TO.P,U1,44,BOOT0*%
%TO.N,BOOT*%
X140250000Y-66837500D03*
%TO.P,U1,45,PB8*%
%TO.N,unconnected-(U1-PB8-Pad45)*%
X139750000Y-66837500D03*
%TO.P,U1,46,PB9*%
%TO.N,unconnected-(U1-PB9-Pad46)*%
X139250000Y-66837500D03*
%TO.P,U1,47,VSS*%
%TO.N,GND*%
X138750000Y-66837500D03*
%TO.P,U1,48,VDD*%
%TO.N,+3.3V*%
X138250000Y-66837500D03*
%TD*%
D19*
%TO.P,D1,1,K*%
%TO.N,/PWR_LED_K*%
X124000000Y-67075000D03*
%TO.P,D1,2,A*%
%TO.N,+3.3V*%
X124000000Y-65500000D03*
%TD*%
D12*
%TO.P,C9,1*%
%TO.N,OSCOUT*%
X133500000Y-70600000D03*
%TO.P,C9,2*%
%TO.N,GND*%
X133500000Y-71560000D03*
%TD*%
D13*
%TO.P,C1,1*%
%TO.N,+3.3V*%
X137600000Y-62500000D03*
%TO.P,C1,2*%
%TO.N,GND*%
X139500000Y-62500000D03*
%TD*%
D20*
%TO.P,U3,1,VCC*%
%TO.N,Net-(D2-K)*%
X126269000Y-81945000D03*
%TO.P,U3,2,INA1*%
%TO.N,MOTOR_IN_1*%
X126269000Y-80675000D03*
%TO.P,U3,3,INB1*%
%TO.N,MOTOR_IN_2*%
X126269000Y-79405000D03*
%TO.P,U3,4,VCC1*%
%TO.N,VCC*%
X126269000Y-78135000D03*
%TO.P,U3,5,VCC*%
%TO.N,Net-(D2-K)*%
X126269000Y-76865000D03*
%TO.P,U3,6,INA2*%
%TO.N,MOTOR_IN_3*%
X126269000Y-75595000D03*
%TO.P,U3,7,INB2*%
%TO.N,MOTOR_IN_4*%
X126269000Y-74325000D03*
%TO.P,U3,8,VCC2*%
%TO.N,VCC*%
X126269000Y-73055000D03*
%TO.P,U3,9,OUTB2*%
%TO.N,Net-(U3-OUTB2)*%
X120731000Y-73055000D03*
%TO.P,U3,10,GND*%
%TO.N,GND*%
X120731000Y-74325000D03*
%TO.P,U3,11,GND*%
X120731000Y-75595000D03*
%TO.P,U3,12,OUTA2*%
%TO.N,Net-(U3-OUTA2)*%
X120731000Y-76865000D03*
%TO.P,U3,13,OUTB1*%
%TO.N,Net-(U3-OUTB1)*%
X120731000Y-78135000D03*
%TO.P,U3,14,GND*%
%TO.N,GND*%
X120731000Y-79405000D03*
%TO.P,U3,15,GND*%
X120731000Y-80675000D03*
%TO.P,U3,16,OUTA1*%
%TO.N,Net-(U3-OUTA1)*%
X120731000Y-81945000D03*
%TD*%
D21*
%TO.P,SW1,*%
%TO.N,*%
X147000000Y-56750000D03*
X147000000Y-50750000D03*
X135000000Y-56750000D03*
X135000000Y-50750000D03*
D22*
%TO.P,SW1,1,A*%
%TO.N,GND*%
X145000000Y-55000000D03*
%TO.P,SW1,2,B*%
%TO.N,Net-(SW1-B)*%
X141000000Y-55000000D03*
%TO.P,SW1,3,C*%
%TO.N,+3.3V*%
X137000000Y-55000000D03*
%TD*%
D15*
%TO.P,C2,1*%
%TO.N,+3.3V*%
X135000000Y-72210000D03*
%TO.P,C2,2*%
%TO.N,GND*%
X135000000Y-71250000D03*
%TD*%
D10*
%TO.P,H1,1,1*%
%TO.N,Net-(U3-OUTA1)*%
X114500000Y-84450000D03*
%TD*%
D23*
%TO.P,R2,1*%
%TO.N,/PWR_LED_K*%
X124000000Y-68990000D03*
%TO.P,R2,2*%
%TO.N,GND*%
X124000000Y-70010000D03*
%TD*%
D10*
%TO.P,H6,1,1*%
%TO.N,GND*%
X121150000Y-51500000D03*
%TD*%
D24*
%TO.P,U2,1,GND*%
%TO.N,GND*%
X120800000Y-58850000D03*
%TO.P,U2,2,VO*%
%TO.N,+3.3V*%
X118500000Y-58850000D03*
D25*
X118500000Y-65150000D03*
D24*
%TO.P,U2,3,VI*%
%TO.N,VCC*%
X116200000Y-58850000D03*
%TD*%
D26*
%TO.P,Y1,1,1*%
%TO.N,OSCIN*%
X129650000Y-69000000D03*
%TO.P,Y1,2,2*%
%TO.N,GND*%
X129650000Y-71200000D03*
%TO.P,Y1,3,3*%
%TO.N,OSCOUT*%
X131350000Y-71200000D03*
%TO.P,Y1,4,4*%
%TO.N,GND*%
X131350000Y-69000000D03*
%TD*%
D15*
%TO.P,C8,1*%
%TO.N,OSCIN*%
X133500000Y-69580000D03*
%TO.P,C8,2*%
%TO.N,GND*%
X133500000Y-68620000D03*
%TD*%
D10*
%TO.P,H3,1,1*%
%TO.N,Net-(U3-OUTA2)*%
X114500000Y-75150000D03*
%TD*%
D14*
%TO.P,C6,1*%
%TO.N,+3.3V*%
X138000000Y-65000000D03*
%TO.P,C6,2*%
%TO.N,GND*%
X138960000Y-65000000D03*
%TD*%
D27*
%TO.P,C11,1*%
%TO.N,+3.3V*%
X124000000Y-62950000D03*
%TO.P,C11,2*%
%TO.N,GND*%
X124000000Y-61050000D03*
%TD*%
D10*
%TO.P,J1,1,Pin_1*%
%TO.N,+3.3V*%
X150000000Y-69540000D03*
D11*
%TO.P,J1,2,Pin_2*%
%TO.N,SWIO*%
X150000000Y-67000000D03*
%TO.P,J1,3,Pin_3*%
%TO.N,SWCLK*%
X150000000Y-64460000D03*
%TO.P,J1,4,Pin_4*%
%TO.N,GND*%
X150000000Y-61920000D03*
%TD*%
D10*
%TO.P,H5,1,1*%
%TO.N,VCC*%
X116500000Y-51500000D03*
%TD*%
D28*
%TO.P,R3,1*%
%TO.N,VCC*%
X121990000Y-93000000D03*
%TO.P,R3,2*%
%TO.N,Net-(D2-K)*%
X123010000Y-93000000D03*
%TD*%
D16*
%TO.P,C13,1*%
%TO.N,VCC*%
X119000000Y-92450000D03*
%TO.P,C13,2*%
%TO.N,GND*%
X119000000Y-88050000D03*
%TD*%
D29*
%TO.P,C4,1*%
%TO.N,+3.3V*%
X144000000Y-77000000D03*
%TO.P,C4,2*%
%TO.N,GND*%
X143040000Y-77000000D03*
%TD*%
D10*
%TO.P,H2,1,1*%
%TO.N,Net-(U3-OUTB1)*%
X114500000Y-79800000D03*
%TD*%
D30*
%TO.P,D2,1,K*%
%TO.N,Net-(D2-K)*%
X131000000Y-92000000D03*
%TO.P,D2,2,A*%
%TO.N,GND*%
X131000000Y-88500000D03*
%TD*%
D23*
%TO.P,R1,1*%
%TO.N,Net-(SW1-B)*%
X141000000Y-60500000D03*
%TO.P,R1,2*%
%TO.N,BOOT*%
X141000000Y-61520000D03*
%TD*%
D31*
%TO.N,+3.3V*%
X124000000Y-64500000D03*
X118500000Y-63500000D03*
X119000000Y-60500000D03*
%TO.N,GND*%
X131000000Y-87000000D03*
X125000000Y-88000000D03*
X120500000Y-88000000D03*
X120500000Y-56000000D03*
X119000000Y-80500000D03*
X119000000Y-79500000D03*
X119000000Y-75500000D03*
X119000000Y-74500000D03*
X124000000Y-59500000D03*
X122500000Y-59000000D03*
D32*
X131250000Y-73000000D03*
X131000000Y-67000000D03*
X142750000Y-73750000D03*
X139250000Y-68750000D03*
X136500000Y-66500000D03*
D31*
X125000000Y-71000000D03*
D32*
X147250000Y-61000000D03*
X134750000Y-87500000D03*
X135750000Y-79750000D03*
X144500000Y-59000000D03*
X143250000Y-69250000D03*
X150750000Y-81250000D03*
X132000000Y-66000000D03*
X129250000Y-73000000D03*
%TO.N,+3.3V*%
X136750000Y-87750000D03*
X146000000Y-75250000D03*
X137250000Y-58750000D03*
X147750000Y-71000000D03*
X137000000Y-61000000D03*
%TO.N,DISP_DC*%
X144250000Y-82750000D03*
X141750000Y-82750000D03*
%TO.N,MOTOR_IN_4*%
X130500000Y-81750000D03*
X124500000Y-75500000D03*
%TO.N,MOTOR_IN_2*%
X133000000Y-76000000D03*
X127750000Y-79250000D03*
%TO.N,MOTOR_IN_1*%
X129750000Y-78500000D03*
X128000000Y-80750000D03*
%TO.N,MOTOR_IN_3*%
X135250000Y-75500000D03*
X129250000Y-75250000D03*
%TD*%
D33*
%TO.N,+3.3V*%
X138250000Y-66837500D02*
X138250000Y-65250000D01*
X138250000Y-65250000D02*
X138000000Y-65000000D01*
X135270000Y-68250000D02*
X135000000Y-67980000D01*
X136837500Y-68250000D02*
X135270000Y-68250000D01*
D34*
X124000000Y-64500000D02*
X124000000Y-65500000D01*
X124000000Y-64500000D02*
X124000000Y-62950000D01*
X118500000Y-63500000D02*
X118500000Y-65150000D01*
X119000000Y-59350000D02*
X118500000Y-58850000D01*
X119000000Y-60500000D02*
X119000000Y-59350000D01*
%TO.N,GND*%
X131000000Y-87000000D02*
X131000000Y-88500000D01*
X126450000Y-88000000D02*
X126500000Y-88050000D01*
X125000000Y-88000000D02*
X126450000Y-88000000D01*
X120450000Y-88050000D02*
X120500000Y-88000000D01*
X119000000Y-88050000D02*
X120450000Y-88050000D01*
X120556000Y-80500000D02*
X120731000Y-80675000D01*
X119000000Y-80500000D02*
X120556000Y-80500000D01*
X120636000Y-79500000D02*
X120731000Y-79405000D01*
X119000000Y-79500000D02*
X120636000Y-79500000D01*
X120636000Y-75500000D02*
X120731000Y-75595000D01*
X119000000Y-75500000D02*
X120636000Y-75500000D01*
X120556000Y-74500000D02*
X120731000Y-74325000D01*
X119000000Y-74500000D02*
X120556000Y-74500000D01*
X124000000Y-59500000D02*
X124000000Y-61050000D01*
X122350000Y-58850000D02*
X122500000Y-59000000D01*
X120800000Y-58850000D02*
X122350000Y-58850000D01*
X119400000Y-56000000D02*
X120500000Y-56000000D01*
D33*
X135000000Y-87250000D02*
X134750000Y-87500000D01*
D34*
X138960000Y-63040000D02*
X139500000Y-62500000D01*
X145000000Y-58500000D02*
X144500000Y-59000000D01*
D33*
X135750000Y-79750000D02*
X135750000Y-78230000D01*
X143250000Y-74250000D02*
X142750000Y-73750000D01*
X133500000Y-68620000D02*
X133500000Y-67500000D01*
X150000000Y-78540000D02*
X150000000Y-80500000D01*
X133500000Y-68620000D02*
X133500000Y-68750000D01*
X132060000Y-73000000D02*
X131250000Y-73000000D01*
X138750000Y-66837500D02*
X138750000Y-65210000D01*
X131600000Y-68750000D02*
X131350000Y-69000000D01*
X133500000Y-67500000D02*
X132000000Y-66000000D01*
D34*
X138960000Y-65000000D02*
X138960000Y-63040000D01*
D33*
X131350000Y-67350000D02*
X131000000Y-67000000D01*
X138750000Y-65210000D02*
X138960000Y-65000000D01*
X138750000Y-66837500D02*
X138750000Y-68250000D01*
X135496880Y-71250000D02*
X135000000Y-71250000D01*
X129650000Y-71200000D02*
X129650000Y-72600000D01*
X133500000Y-71560000D02*
X134690000Y-71560000D01*
X134690000Y-71560000D02*
X135000000Y-71250000D01*
X150000000Y-80500000D02*
X150750000Y-81250000D01*
X135000000Y-85000000D02*
X135000000Y-87250000D01*
X131350000Y-69000000D02*
X131350000Y-67350000D01*
X129650000Y-72600000D02*
X129250000Y-73000000D01*
X138750000Y-68250000D02*
X139250000Y-68750000D01*
X124000000Y-70010000D02*
X124010000Y-70010000D01*
X146750000Y-68003120D02*
X146750000Y-67250000D01*
X143250000Y-75162500D02*
X143250000Y-76790000D01*
X124010000Y-70010000D02*
X125000000Y-71000000D01*
X135980000Y-67020000D02*
X136500000Y-66500000D01*
X135000000Y-67020000D02*
X135980000Y-67020000D01*
D34*
X145000000Y-55000000D02*
X145000000Y-58500000D01*
D33*
X143750000Y-68750000D02*
X143250000Y-69250000D01*
X136837500Y-71750000D02*
X135996880Y-71750000D01*
X135996880Y-71750000D02*
X135496880Y-71250000D01*
X133500000Y-71560000D02*
X132060000Y-73000000D01*
X145162500Y-68750000D02*
X146003120Y-68750000D01*
X145162500Y-68750000D02*
X143750000Y-68750000D01*
X146003120Y-68750000D02*
X146750000Y-68003120D01*
X143250000Y-76790000D02*
X143040000Y-77000000D01*
X143250000Y-75162500D02*
X143250000Y-74250000D01*
%TO.N,+3.3V*%
X146500000Y-75750000D02*
X150000000Y-75750000D01*
X137540000Y-85000000D02*
X137540000Y-86960000D01*
X146000000Y-75250000D02*
X146500000Y-75750000D01*
X137000000Y-58500000D02*
X137250000Y-58750000D01*
X137600000Y-61600000D02*
X137600000Y-62500000D01*
X137540000Y-86960000D02*
X136750000Y-87750000D01*
X135040000Y-72250000D02*
X135000000Y-72210000D01*
X143750000Y-76750000D02*
X144000000Y-77000000D01*
X150000000Y-75750000D02*
X150000000Y-76000000D01*
X145162500Y-67877500D02*
X145790000Y-67250000D01*
X149210000Y-69540000D02*
X150000000Y-69540000D01*
X145162500Y-68250000D02*
X145162500Y-67877500D01*
X137000000Y-55000000D02*
X137000000Y-58500000D01*
D34*
X138000000Y-62900000D02*
X137600000Y-62500000D01*
D33*
X147750000Y-71000000D02*
X149210000Y-69540000D01*
D34*
X138000000Y-65000000D02*
X138000000Y-62900000D01*
D33*
X143750000Y-75162500D02*
X143750000Y-76750000D01*
X136837500Y-72250000D02*
X135040000Y-72250000D01*
X137000000Y-61000000D02*
X137600000Y-61600000D01*
%TO.N,/RST*%
X137678120Y-74250000D02*
X137925000Y-74003120D01*
X135750000Y-77270000D02*
X136250000Y-76770000D01*
X137250000Y-74250000D02*
X137678120Y-74250000D01*
X136250000Y-75250000D02*
X137250000Y-74250000D01*
X137925000Y-74003120D02*
X137925000Y-71496880D01*
X137925000Y-71496880D02*
X137678120Y-71250000D01*
X137678120Y-71250000D02*
X136837500Y-71250000D01*
X136250000Y-76770000D02*
X136250000Y-75250000D01*
%TO.N,OSCIN*%
X130600000Y-70050000D02*
X129650000Y-69100000D01*
X133500000Y-69580000D02*
X133030000Y-70050000D01*
X135746880Y-70000000D02*
X135996880Y-70250000D01*
X133500000Y-69580000D02*
X133830000Y-69580000D01*
X129650000Y-69100000D02*
X129650000Y-69000000D01*
X133030000Y-70050000D02*
X130600000Y-70050000D01*
X134250000Y-70000000D02*
X135746880Y-70000000D01*
X135996880Y-70250000D02*
X136837500Y-70250000D01*
X133830000Y-69580000D02*
X134250000Y-70000000D01*
%TO.N,OSCOUT*%
X133500000Y-70600000D02*
X135639773Y-70600000D01*
X131350000Y-71200000D02*
X131950000Y-70600000D01*
X131950000Y-70600000D02*
X133500000Y-70600000D01*
X135789773Y-70750000D02*
X136837500Y-70750000D01*
X135639773Y-70600000D02*
X135789773Y-70750000D01*
D34*
%TO.N,VCC*%
X121750000Y-64400000D02*
X116200000Y-58850000D01*
X115000000Y-60050000D02*
X116200000Y-58850000D01*
X116200000Y-59599226D02*
X116200000Y-58850000D01*
X121000000Y-64399226D02*
X116200000Y-59599226D01*
X119550000Y-93000000D02*
X119000000Y-92450000D01*
X122250000Y-72150774D02*
X115000000Y-64900774D01*
X121990000Y-93000000D02*
X119550000Y-93000000D01*
X125537000Y-78135000D02*
X123000000Y-75598000D01*
X126269000Y-73055000D02*
X125055000Y-73055000D01*
X121750000Y-69750000D02*
X121750000Y-64400000D01*
X126269000Y-78135000D02*
X125537000Y-78135000D01*
X123000000Y-72000000D02*
X121000000Y-70000000D01*
X122250000Y-89200000D02*
X122250000Y-72150774D01*
X115000000Y-64900774D02*
X115000000Y-60050000D01*
X123000000Y-75598000D02*
X123000000Y-72000000D01*
X119000000Y-92450000D02*
X122250000Y-89200000D01*
X121000000Y-70000000D02*
X121000000Y-64399226D01*
X125055000Y-73055000D02*
X121750000Y-69750000D01*
%TO.N,Net-(D2-K)*%
X125950000Y-93000000D02*
X126500000Y-92450000D01*
X129000000Y-92450000D02*
X130550000Y-92450000D01*
X128250000Y-92450000D02*
X129000000Y-92450000D01*
X128250000Y-83194000D02*
X128250000Y-92450000D01*
X126773275Y-76865000D02*
X129000000Y-79091725D01*
X123010000Y-93000000D02*
X125950000Y-93000000D01*
X130550000Y-92450000D02*
X131000000Y-92000000D01*
X126500000Y-92450000D02*
X128250000Y-92450000D01*
X126269000Y-76865000D02*
X126773275Y-76865000D01*
X129000000Y-79091725D02*
X129000000Y-92450000D01*
X126269000Y-81945000D02*
X127001000Y-81945000D01*
X127001000Y-81945000D02*
X128250000Y-83194000D01*
D33*
%TO.N,/PWR_LED_K*%
X124000000Y-68990000D02*
X124000000Y-67075000D01*
%TO.N,Net-(U3-OUTA1)*%
X117005000Y-81945000D02*
X114500000Y-84450000D01*
X120731000Y-81945000D02*
X117005000Y-81945000D01*
%TO.N,Net-(U3-OUTB1)*%
X116165000Y-78135000D02*
X114500000Y-79800000D01*
X120731000Y-78135000D02*
X116165000Y-78135000D01*
%TO.N,Net-(U3-OUTA2)*%
X116215000Y-76865000D02*
X114500000Y-75150000D01*
X120731000Y-76865000D02*
X116215000Y-76865000D01*
%TO.N,Net-(U3-OUTB2)*%
X117055000Y-73055000D02*
X114500000Y-70500000D01*
X120731000Y-73055000D02*
X117055000Y-73055000D01*
X114500000Y-70500000D02*
X115000000Y-70500000D01*
%TO.N,SWCLK*%
X150000000Y-64460000D02*
X150000000Y-64500000D01*
X144087500Y-66500000D02*
X143750000Y-66837500D01*
X148000000Y-66500000D02*
X144087500Y-66500000D01*
X150000000Y-64500000D02*
X148000000Y-66500000D01*
%TO.N,SWIO*%
X150000000Y-67000000D02*
X147750000Y-69250000D01*
X147750000Y-69250000D02*
X145162500Y-69250000D01*
%TO.N,DISP_CS*%
X144630000Y-74630000D02*
X142750000Y-72750000D01*
X150240000Y-85000000D02*
X150000000Y-85000000D01*
X142750000Y-72750000D02*
X140321880Y-72750000D01*
X150000000Y-85000000D02*
X144630000Y-79630000D01*
X140321880Y-72750000D02*
X138750000Y-74321880D01*
X138750000Y-74321880D02*
X138750000Y-75162500D01*
X144630000Y-79630000D02*
X144630000Y-74630000D01*
%TO.N,DISP_SCK*%
X139250000Y-84170000D02*
X139250000Y-75162500D01*
X140080000Y-85000000D02*
X139250000Y-84170000D01*
%TO.N,DISP_SDA*%
X140250000Y-82630000D02*
X140250000Y-75162500D01*
X142620000Y-85000000D02*
X140250000Y-82630000D01*
%TO.N,DISP_DC*%
X145450000Y-82750000D02*
X144250000Y-82750000D01*
X147700000Y-85000000D02*
X145450000Y-82750000D01*
X141750000Y-82750000D02*
X140750000Y-81750000D01*
X140750000Y-81750000D02*
X140750000Y-75162500D01*
%TO.N,DISP_RES*%
X143000000Y-82500000D02*
X143000000Y-83250000D01*
X143000000Y-83250000D02*
X144750000Y-85000000D01*
X141250000Y-80750000D02*
X143000000Y-82500000D01*
X145160000Y-85000000D02*
X145160000Y-84910000D01*
X144750000Y-85000000D02*
X145160000Y-85000000D01*
X141250000Y-75162500D02*
X141250000Y-80750000D01*
%TO.N,UART_RX*%
X150000000Y-73460000D02*
X148960000Y-73460000D01*
X146250000Y-70750000D02*
X145162500Y-70750000D01*
X148960000Y-73460000D02*
X146250000Y-70750000D01*
%TO.N,BOOT*%
X140250000Y-63330456D02*
X141000000Y-62580456D01*
X141000000Y-62580456D02*
X141000000Y-61520000D01*
X140250000Y-66837500D02*
X140250000Y-63330456D01*
%TO.N,Net-(SW1-B)*%
X141000000Y-55000000D02*
X141000000Y-60500000D01*
%TO.N,MOTOR_IN_4*%
X135244975Y-81750000D02*
X130500000Y-81750000D01*
X138250000Y-78744975D02*
X135244975Y-81750000D01*
X125675000Y-74325000D02*
X126269000Y-74325000D01*
X124500000Y-75500000D02*
X125675000Y-74325000D01*
X138250000Y-75162500D02*
X138250000Y-78744975D01*
%TO.N,MOTOR_IN_2*%
X126424000Y-79250000D02*
X126269000Y-79405000D01*
X133246880Y-76000000D02*
X133000000Y-76000000D01*
X136837500Y-73250000D02*
X135996880Y-73250000D01*
X127750000Y-79250000D02*
X126424000Y-79250000D01*
X135996880Y-73250000D02*
X133246880Y-76000000D01*
X126269000Y-79405000D02*
X125537000Y-79405000D01*
%TO.N,MOTOR_IN_1*%
X135376846Y-72840000D02*
X135466846Y-72750000D01*
X134660000Y-72840000D02*
X135376846Y-72840000D01*
X135466846Y-72750000D02*
X136837500Y-72750000D01*
X129750000Y-78500000D02*
X129750000Y-77750000D01*
X129750000Y-77750000D02*
X134660000Y-72840000D01*
X126344000Y-80750000D02*
X126269000Y-80675000D01*
X128000000Y-80750000D02*
X126344000Y-80750000D01*
X126269000Y-80675000D02*
X125906146Y-80675000D01*
%TO.N,MOTOR_IN_3*%
X136837500Y-73750000D02*
X136750000Y-73750000D01*
X128905000Y-75595000D02*
X126269000Y-75595000D01*
X136837500Y-73912500D02*
X135250000Y-75500000D01*
X129250000Y-75250000D02*
X128905000Y-75595000D01*
X126269000Y-75595000D02*
X125906146Y-75595000D01*
X136837500Y-73750000D02*
X136837500Y-73912500D01*
%TD*%
%TA.AperFunction,Conductor*%
%TO.N,VCC*%
G36*
X118443039Y-50019685D02*
G01*
X118488794Y-50072489D01*
X118500000Y-50124000D01*
X118500000Y-56876000D01*
X118480315Y-56943039D01*
X118427511Y-56988794D01*
X118376000Y-57000000D01*
X117500000Y-57000000D01*
X117500000Y-57941260D01*
X117494385Y-57978150D01*
X117455685Y-58102341D01*
X117449500Y-58170408D01*
X117449500Y-59529591D01*
X117455685Y-59597654D01*
X117455686Y-59597661D01*
X117494385Y-59721848D01*
X117500000Y-59758739D01*
X117500000Y-59876000D01*
X117480315Y-59943039D01*
X117427511Y-59988794D01*
X117376000Y-60000000D01*
X115124000Y-60000000D01*
X115056961Y-59980315D01*
X115011206Y-59927511D01*
X115000000Y-59876000D01*
X115000000Y-50124000D01*
X115019685Y-50056961D01*
X115072489Y-50011206D01*
X115124000Y-50000000D01*
X118376000Y-50000000D01*
X118443039Y-50019685D01*
G37*
%TD.AperFunction*%
%TD*%
M02*
