%TF.GenerationSoftware,KiCad,Pcbnew,8.0.5*%
%TF.CreationDate,2025-02-26T14:21:12-03:00*%
%TF.ProjectId,EchoCar_PCB,4563686f-4361-4725-9f50-43422e6b6963,rev?*%
%TF.SameCoordinates,Original*%
%TF.FileFunction,Copper,L4,Bot*%
%TF.FilePolarity,Positive*%
%FSLAX46Y46*%
G04 Gerber Fmt 4.6, Leading zero omitted, Abs format (unit mm)*
G04 Created by KiCad (PCBNEW 8.0.5) date 2025-02-26 14:21:12*
%MOMM*%
%LPD*%
G01*
G04 APERTURE LIST*
%TA.AperFunction,ComponentPad*%
%ADD10R,1.700000X1.700000*%
%TD*%
%TA.AperFunction,ComponentPad*%
%ADD11O,1.700000X1.700000*%
%TD*%
%TA.AperFunction,ComponentPad*%
%ADD12C,2.000000*%
%TD*%
%TA.AperFunction,ComponentPad*%
%ADD13C,1.700000*%
%TD*%
%TA.AperFunction,ViaPad*%
%ADD14C,0.600000*%
%TD*%
%TA.AperFunction,ViaPad*%
%ADD15C,0.700000*%
%TD*%
%TA.AperFunction,Conductor*%
%ADD16C,0.300000*%
%TD*%
G04 APERTURE END LIST*
D10*
%TO.P,J3,1,Pin_1*%
%TO.N,GND*%
X150000000Y-78540000D03*
D11*
%TO.P,J3,2,Pin_2*%
%TO.N,+3.3V*%
X150000000Y-76000000D03*
%TO.P,J3,3,Pin_3*%
%TO.N,UART_RX*%
X150000000Y-73460000D03*
%TD*%
D10*
%TO.P,J2,1,Pin_1*%
%TO.N,GND*%
X135000000Y-85000000D03*
D11*
%TO.P,J2,2,Pin_2*%
%TO.N,+3.3V*%
X137540000Y-85000000D03*
%TO.P,J2,3,Pin_3*%
%TO.N,DISP_SCK*%
X140080000Y-85000000D03*
%TO.P,J2,4,Pin_4*%
%TO.N,DISP_SDA*%
X142620000Y-85000000D03*
%TO.P,J2,5,Pin_5*%
%TO.N,DISP_RES*%
X145160000Y-85000000D03*
%TO.P,J2,6,Pin_6*%
%TO.N,DISP_DC*%
X147700000Y-85000000D03*
%TO.P,J2,7,Pin_7*%
%TO.N,DISP_CS*%
X150240000Y-85000000D03*
%TD*%
D10*
%TO.P,H4,1,1*%
%TO.N,Net-(U3-OUTB2)*%
X114500000Y-70500000D03*
%TD*%
D12*
%TO.P,SW1,*%
%TO.N,*%
X147000000Y-56750000D03*
X147000000Y-50750000D03*
X135000000Y-56750000D03*
X135000000Y-50750000D03*
D13*
%TO.P,SW1,1,A*%
%TO.N,GND*%
X145000000Y-55000000D03*
%TO.P,SW1,2,B*%
%TO.N,Net-(SW1-B)*%
X141000000Y-55000000D03*
%TO.P,SW1,3,C*%
%TO.N,+3.3V*%
X137000000Y-55000000D03*
%TD*%
D10*
%TO.P,H1,1,1*%
%TO.N,Net-(U3-OUTA1)*%
X114500000Y-84450000D03*
%TD*%
%TO.P,H6,1,1*%
%TO.N,GND*%
X121150000Y-51500000D03*
%TD*%
%TO.P,H3,1,1*%
%TO.N,Net-(U3-OUTA2)*%
X114500000Y-75150000D03*
%TD*%
%TO.P,J1,1,Pin_1*%
%TO.N,+3.3V*%
X150000000Y-69540000D03*
D11*
%TO.P,J1,2,Pin_2*%
%TO.N,SWIO*%
X150000000Y-67000000D03*
%TO.P,J1,3,Pin_3*%
%TO.N,SWCLK*%
X150000000Y-64460000D03*
%TO.P,J1,4,Pin_4*%
%TO.N,GND*%
X150000000Y-61920000D03*
%TD*%
D10*
%TO.P,H5,1,1*%
%TO.N,VCC*%
X116500000Y-51500000D03*
%TD*%
%TO.P,H2,1,1*%
%TO.N,Net-(U3-OUTB1)*%
X114500000Y-79800000D03*
%TD*%
D14*
%TO.N,+3.3V*%
X124000000Y-64500000D03*
X118500000Y-63500000D03*
X119000000Y-60500000D03*
%TO.N,GND*%
X131000000Y-87000000D03*
X125000000Y-88000000D03*
X120500000Y-88000000D03*
X120500000Y-56000000D03*
X119000000Y-80500000D03*
X119000000Y-79500000D03*
X119000000Y-75500000D03*
X119000000Y-74500000D03*
X124000000Y-59500000D03*
X122500000Y-59000000D03*
D15*
X131250000Y-73000000D03*
X131000000Y-67000000D03*
X142750000Y-73750000D03*
X139250000Y-68750000D03*
X136500000Y-66500000D03*
D14*
X125000000Y-71000000D03*
D15*
X147250000Y-61000000D03*
X134750000Y-87500000D03*
X135750000Y-79750000D03*
X144500000Y-59000000D03*
X143250000Y-69250000D03*
X150750000Y-81250000D03*
X132000000Y-66000000D03*
X129250000Y-73000000D03*
%TO.N,+3.3V*%
X136750000Y-87750000D03*
X146000000Y-75250000D03*
X137250000Y-58750000D03*
X147750000Y-71000000D03*
X137000000Y-61000000D03*
%TO.N,DISP_DC*%
X144250000Y-82750000D03*
X141750000Y-82750000D03*
%TO.N,MOTOR_IN_4*%
X130500000Y-81750000D03*
X124500000Y-75500000D03*
%TO.N,MOTOR_IN_2*%
X133000000Y-76000000D03*
X127750000Y-79250000D03*
%TO.N,MOTOR_IN_1*%
X129750000Y-78500000D03*
X128000000Y-80750000D03*
%TO.N,MOTOR_IN_3*%
X135250000Y-75500000D03*
X129250000Y-75250000D03*
%TD*%
D16*
%TO.N,GND*%
X149080000Y-61000000D02*
X147250000Y-61000000D01*
X150000000Y-61920000D02*
X149080000Y-61000000D01*
%TO.N,DISP_DC*%
X144250000Y-82750000D02*
X141750000Y-82750000D01*
%TO.N,MOTOR_IN_4*%
X124500000Y-78239950D02*
X124500000Y-75500000D01*
X130500000Y-81750000D02*
X128010050Y-81750000D01*
X128010050Y-81750000D02*
X124500000Y-78239950D01*
%TO.N,MOTOR_IN_2*%
X131000000Y-76000000D02*
X127750000Y-79250000D01*
X133000000Y-76000000D02*
X131000000Y-76000000D01*
%TO.N,MOTOR_IN_1*%
X129750000Y-79000000D02*
X128000000Y-80750000D01*
X129750000Y-78500000D02*
X129750000Y-79000000D01*
%TO.N,MOTOR_IN_3*%
X135050000Y-75300000D02*
X129300000Y-75300000D01*
X135250000Y-75500000D02*
X135050000Y-75300000D01*
X129300000Y-75300000D02*
X129250000Y-75250000D01*
%TD*%
M02*
