M48
; DRILL file {KiCad 8.0.5} date 2025-02-26T14:21:06-0300
; FORMAT={-:-/ absolute / metric / decimal}
; #@! TF.CreationDate,2025-02-26T14:21:06-03:00
; #@! TF.GenerationSoftware,Kicad,Pcbnew,8.0.5
; #@! TF.FileFunction,MixedPlating,1,4
FMAT,2
METRIC
; #@! TA.AperFunction,Plated,PTH,ViaDrill
T1C0.300
; #@! TA.AperFunction,Plated,PTH,ComponentDrill
T2C0.900
; #@! TA.AperFunction,Plated,PTH,ComponentDrill
T3C1.000
; #@! TA.AperFunction,Plated,PTH,ComponentDrill
T4C1.200
%
G90
G05
T1
X118.5Y-63.5
X119.0Y-60.5
X119.0Y-74.5
X119.0Y-75.5
X119.0Y-79.5
X119.0Y-80.5
X120.5Y-56.0
X120.5Y-88.0
X122.5Y-59.0
X124.0Y-59.5
X124.0Y-64.5
X124.5Y-75.5
X125.0Y-71.0
X125.0Y-88.0
X127.75Y-79.25
X128.0Y-80.75
X129.25Y-73.0
X129.25Y-75.25
X129.75Y-78.5
X130.5Y-81.75
X131.0Y-67.0
X131.0Y-87.0
X131.25Y-73.0
X132.0Y-66.0
X133.0Y-76.0
X134.75Y-87.5
X135.25Y-75.5
X135.75Y-79.75
X136.5Y-66.5
X136.75Y-87.75
X137.0Y-61.0
X137.25Y-58.75
X139.25Y-68.75
X141.75Y-82.75
X142.75Y-73.75
X143.25Y-69.25
X144.25Y-82.75
X144.5Y-59.0
X146.0Y-75.25
X147.25Y-61.0
X147.75Y-71.0
X150.75Y-81.25
T2
X137.0Y-55.0
X141.0Y-55.0
X145.0Y-55.0
T3
X114.5Y-70.5
X114.5Y-75.15
X114.5Y-79.8
X114.5Y-84.45
X116.5Y-51.5
X121.15Y-51.5
X135.0Y-85.0
X137.54Y-85.0
X140.08Y-85.0
X142.62Y-85.0
X145.16Y-85.0
X147.7Y-85.0
X150.0Y-61.92
X150.0Y-64.46
X150.0Y-67.0
X150.0Y-69.54
X150.0Y-73.46
X150.0Y-76.0
X150.0Y-78.54
X150.24Y-85.0
T4
X135.0Y-50.75
X135.0Y-56.75
X147.0Y-50.75
X147.0Y-56.75
M30
